<?xml version="1.0" encoding="UTF-8" standalone="no"?>
<!-- Created with Inkscape (http://www.inkscape.org/) -->

<svg
   width="210mm"
   height="297mm"
   viewBox="0 0 210 297"
   version="1.1"
   id="svg1477"
   inkscape:version="1.1.1 (eb90963e84, 2021-10-02)"
   sodipodi:docname="dn2gg.svg"
   xmlns:inkscape="http://www.inkscape.org/namespaces/inkscape"
   xmlns:sodipodi="http://sodipodi.sourceforge.net/DTD/sodipodi-0.dtd"
   xmlns="http://www.w3.org/2000/svg"
   xmlns:svg="http://www.w3.org/2000/svg">
  <sodipodi:namedview
     id="namedview1479"
     pagecolor="#ffffff"
     bordercolor="#999999"
     borderopacity="1"
     inkscape:pageshadow="0"
     inkscape:pageopacity="0"
     inkscape:pagecheckerboard="0"
     inkscape:document-units="mm"
     showgrid="true"
     inkscape:zoom="1.5465208"
     inkscape:cx="257.67517"
     inkscape:cy="183.31471"
     inkscape:window-width="1920"
     inkscape:window-height="1015"
     inkscape:window-x="0"
     inkscape:window-y="0"
     inkscape:window-maximized="1"
     inkscape:current-layer="layer1">
    <inkscape:grid
       type="xygrid"
       id="grid1538" />
  </sodipodi:namedview>
  <defs
     id="defs1474" />
  <g
     inkscape:label="Layer 1"
     inkscape:groupmode="layer"
     id="layer1">
    <path
       style="fill:none;stroke:#000000;stroke-width:0.264583px;stroke-linecap:butt;stroke-linejoin:miter;stroke-opacity:1"
       d="M 10.583329,10.583333 H 37.041667"
       id="path960"
       sodipodi:nodetypes="cc"
       inkscape:export-xdpi="225"
       inkscape:export-ydpi="225"
       inkscape:export-filename="/home/vitaly/dn2gamgam1.png" />
    <path
       style="fill:none;stroke:#000000;stroke-width:0.264583px;stroke-linecap:butt;stroke-linejoin:miter;stroke-opacity:1"
       d="M 37.041663,10.583333 V 31.75"
       id="path960-5"
       sodipodi:nodetypes="cc"
       inkscape:export-xdpi="225"
       inkscape:export-ydpi="225"
       inkscape:export-filename="/home/vitaly/dn2gamgam1.png" />
    <path
       style="fill:none;stroke:#000000;stroke-width:0.273328px;stroke-linecap:butt;stroke-linejoin:miter;stroke-opacity:1"
       d="m 25.760929,31.75 c -0.01603,-0.542359 -1.154276,-1.003701 -1.310705,-1.399306 -0.215397,-0.544711 2.764676,-1.041871 2.524379,-1.495875 -0.220864,-0.417279 -2.645766,-0.776843 -2.661037,-1.293646 -0.01534,-0.519133 2.619494,-0.935669 2.59703,-1.491362 -0.02313,-0.572788 -2.67043,-0.65908 -2.684863,-1.331743 -0.0111,-0.517684 2.623353,-0.954319 2.607247,-1.499236 -0.01667,-0.56445 -2.661197,-0.475437 -2.69484,-1.306718 -0.03362,-0.829727 2.628118,-0.951057 2.599394,-1.51531 -0.0295,-0.579481 -2.659387,-0.779376 -2.675503,-1.324582 -0.01612,-0.545684 2.620823,-0.933383 2.590186,-1.492852 -0.03245,-0.5927 -2.638878,-0.628029 -2.667114,-1.340623 -0.02178,-0.550911 2.613485,-0.951545 2.597669,-1.486578 -0.01733,-0.586522 -2.691849,-0.771937 -2.70194,-1.355271 -0.0089,-0.510086 2.635224,-0.902514 2.614748,-1.479565 -0.01479,-0.415822 -1.343376,-0.785771 -1.360167,-1.354"
       id="path853-3-2"
       sodipodi:nodetypes="cssssssssssssssc"
       inkscape:export-xdpi="225"
       inkscape:export-ydpi="225"
       inkscape:export-filename="/home/vitaly/dn2gamgam1.png" />
    <path
       style="fill:none;stroke:#000000;stroke-width:0.273328px;stroke-linecap:butt;stroke-linejoin:miter;stroke-opacity:1"
       d="m 58.217552,10.555227 c -0.542595,7.22e-4 -1.035866,1.1255 -1.435727,1.270706 -0.550571,0.199943 -0.963458,-2.7929697 -1.424061,-2.5655767 -0.423344,0.209004 -0.851177,2.6227967 -1.368205,2.6234807 -0.519359,6.88e-4 -0.861395,-2.6448477 -1.4175,-2.6380707 -0.573213,0.007 -0.734157,2.6507727 -1.406959,2.6462227 -0.517791,-0.0035 -0.879928,-2.6492317 -1.425083,-2.6485057 -0.564696,7.39e-4 -0.550326,2.6467237 -1.382226,2.6569017 -0.830345,0.0102 -0.876533,-2.6539037 -1.441371,-2.6411097 -0.580083,0.01314 -0.854094,2.6363397 -1.399537,2.6370677 -0.545922,7.19e-4 -0.859072,-2.6461117 -1.419183,-2.6312707 -0.59338,0.01572 -0.702228,2.6201087 -1.415335,2.6282297 -0.551306,0.0062 -0.877434,-2.6392897 -1.4127,-2.6385747 -0.586777,7.76e-4 -0.847573,2.6689987 -1.430959,2.6626287 -0.510134,-0.0055 -0.827809,-2.6596367 -1.405208,-2.6554487 -0.416074,0.0031 -0.823358,1.3206727 -1.391835,1.3214257"
       id="path853-3-2-3"
       sodipodi:nodetypes="cssssssssssssssc"
       inkscape:export-xdpi="225"
       inkscape:export-ydpi="225"
       inkscape:export-filename="/home/vitaly/dn2gamgam1.png" />
    <path
       style="fill:none;stroke:#000000;stroke-width:0.273328px;stroke-linecap:butt;stroke-linejoin:miter;stroke-opacity:1"
       d="m 58.217552,31.721893 c -0.542595,7.23e-4 -1.035866,1.125501 -1.435727,1.270706 -0.550571,0.199943 -0.963458,-2.79297 -1.424061,-2.565577 -0.423344,0.209004 -0.851177,2.622797 -1.368205,2.623481 -0.519359,6.88e-4 -0.861395,-2.644848 -1.4175,-2.638071 -0.573213,0.007 -0.734157,2.650773 -1.406959,2.646223 -0.517791,-0.0035 -0.879928,-2.649232 -1.425083,-2.648506 -0.564696,7.39e-4 -0.550326,2.646724 -1.382226,2.656902 -0.830345,0.0102 -0.876533,-2.653904 -1.441371,-2.64111 -0.580083,0.01314 -0.854094,2.63634 -1.399537,2.637068 -0.545922,7.19e-4 -0.859072,-2.646112 -1.419183,-2.631271 -0.59338,0.01572 -0.702228,2.620109 -1.415335,2.628231 -0.551306,0.0062 -0.877434,-2.639291 -1.4127,-2.638576 -0.586777,7.77e-4 -0.847573,2.668999 -1.430959,2.66263 -0.510134,-0.0055 -0.827809,-2.659638 -1.405208,-2.655449 -0.416074,0.0031 -0.823358,1.320673 -1.391835,1.321426"
       id="path853-3-2-3-7"
       sodipodi:nodetypes="cssssssssssssssc"
       inkscape:export-xdpi="225"
       inkscape:export-ydpi="225"
       inkscape:export-filename="/home/vitaly/dn2gamgam1.png" />
    <path
       style="fill:none;stroke:#000000;stroke-width:0.264583px;stroke-linecap:butt;stroke-linejoin:miter;stroke-opacity:1"
       d="m 10.583329,31.75 26.458341,-1e-6"
       id="path960-4"
       sodipodi:nodetypes="cc"
       inkscape:export-xdpi="225"
       inkscape:export-ydpi="225"
       inkscape:export-filename="/home/vitaly/dn2gamgam1.png" />
    <path
       style="fill:none;stroke:#000000;stroke-width:0.264583px;stroke-linecap:butt;stroke-linejoin:miter;stroke-opacity:1"
       d="m 68.791666,23.812501 15.865781,0.02811"
       id="path960-3"
       sodipodi:nodetypes="cc"
       inkscape:export-xdpi="300"
       inkscape:export-ydpi="300"
       inkscape:export-filename="/home/vitaly/dn2gamgam2.png" />
    <path
       style="fill:none;stroke:#000000;stroke-width:0.264583px;stroke-linecap:butt;stroke-linejoin:miter;stroke-opacity:1"
       d="m 97.895833,23.812501 v 7.9375"
       id="path960-5-5"
       sodipodi:nodetypes="cc"
       inkscape:export-xdpi="300"
       inkscape:export-ydpi="300"
       inkscape:export-filename="/home/vitaly/dn2gamgam2.png" />
    <path
       style="fill:none;stroke:#000000;stroke-width:0.273328px;stroke-linecap:butt;stroke-linejoin:miter;stroke-opacity:1"
       d="m 119.0625,31.750001 c -0.54259,7.23e-4 -1.03587,1.125501 -1.43573,1.270706 -0.55057,0.199943 -0.96345,-2.79297 -1.42406,-2.565577 -0.42334,0.209004 -0.85117,2.622797 -1.3682,2.623481 -0.51936,6.88e-4 -0.8614,-2.644848 -1.4175,-2.638071 -0.57322,0.007 -0.73416,2.650773 -1.40696,2.646223 -0.51779,-0.0035 -0.87993,-2.649232 -1.42508,-2.648506 -0.5647,7.39e-4 -0.55033,2.646724 -1.38223,2.656902 -0.83035,0.0102 -0.87653,-2.653904 -1.44137,-2.64111 -0.58008,0.01314 -0.8541,2.63634 -1.39954,2.637068 -0.54592,7.19e-4 -0.85907,-2.646112 -1.41918,-2.631271 -0.59338,0.01572 -0.70223,2.620109 -1.41534,2.628231 -0.5513,0.0062 -0.87743,-2.639291 -1.4127,-2.638576 -0.58677,7.77e-4 -0.84757,2.668999 -1.43096,2.66263 -0.51013,-0.0055 -0.827805,-2.659638 -1.405204,-2.655449 -0.416074,0.0031 -0.823358,1.320673 -1.391835,1.321426"
       id="path853-3-2-3-7-9"
       sodipodi:nodetypes="cssssssssssssssc"
       inkscape:export-xdpi="300"
       inkscape:export-ydpi="300"
       inkscape:export-filename="/home/vitaly/dn2gamgam2.png" />
    <path
       style="fill:none;stroke:#000000;stroke-width:0.273328px;stroke-linecap:butt;stroke-linejoin:miter;stroke-opacity:1"
       d="m 111.125,9.260418 c -0.50331,0.202708 -0.54229,1.430276 -0.85933,1.713929 -0.43653,0.390572 -1.93415,-2.233384 -2.27696,-1.850836 -0.31508,0.351608 0.18663,2.751133 -0.29296,2.944285 -0.48176,0.194024 -1.78427,-2.133917 -2.29786,-1.920559 -0.52939,0.219934 0.30566,2.733524 -0.32046,2.979821 -0.48186,0.189553 -1.8031,-2.131084 -2.30879,-1.92742 -0.52381,0.210952 0.47477,2.661316 -0.29352,2.980523 -0.76684,0.318648 -1.80169,-2.136685 -2.32115,-1.914492 -0.533479,0.228191 0.18897,2.764789 -0.316979,2.968562 -0.506398,0.203943 -1.782586,-2.135955 -2.296893,-1.913622 -0.544858,0.235536 0.323874,2.693177 -0.33493,2.966242 -0.509354,0.211035 -1.797087,-2.122787 -2.293597,-1.922815 -0.544293,0.219209 0.207186,2.79267 -0.336621,3.003985 -0.475499,0.184845 -1.758607,-2.160149 -2.292926,-1.941265 -0.385,0.157804 -0.272395,1.532285 -0.799713,1.744658"
       id="path853-3-2-3-7-9-2"
       sodipodi:nodetypes="cssssssssssssssc"
       inkscape:export-xdpi="300"
       inkscape:export-ydpi="300"
       inkscape:export-filename="/home/vitaly/dn2gamgam2.png" />
    <path
       style="fill:none;stroke:#000000;stroke-width:0.264583px;stroke-linecap:butt;stroke-linejoin:miter;stroke-opacity:1"
       d="M 68.782444,31.778108 H 97.886611"
       id="path960-4-1"
       sodipodi:nodetypes="cc"
       inkscape:export-xdpi="300"
       inkscape:export-ydpi="300"
       inkscape:export-filename="/home/vitaly/dn2gamgam2.png" />
    <path
       style="fill:none;stroke:#000000;stroke-width:0.264583px;stroke-linecap:butt;stroke-linejoin:miter;stroke-opacity:1"
       d="m 84.666666,23.812501 c 0,0 0.707341,-1.42281 1.322917,-1.322916 0.973311,0.157947 0.336872,2.645833 1.322916,2.645833 0.986044,0 0.336873,-2.645833 1.322917,-2.645833 0.986044,0 0.336873,2.645833 1.322917,2.645833 0.986044,0 0.336872,-2.645833 1.322916,-2.645833 0.986044,0 0.336873,2.645833 1.322917,2.645833 0.986044,0 0.336873,-2.645833 1.322917,-2.645833 0.986044,0 0.336872,2.645833 1.322916,2.645833 0.986044,0 0.349606,-2.487886 1.322917,-2.645833 0.615576,-0.09989 1.322917,1.322916 1.322917,1.322916"
       id="path4242"
       sodipodi:nodetypes="caaaaaaaaac"
       inkscape:export-filename="/home/vitaly/dn2gamgam2.png"
       inkscape:export-xdpi="300"
       inkscape:export-ydpi="300" />
    <path
       style="fill:none;stroke:#000000;stroke-width:0.264583px;stroke-linecap:butt;stroke-linejoin:miter;stroke-opacity:1"
       d="m 84.666666,23.8125 c 0,0 0,-6.614582 6.614583,-6.614583 6.614583,-1e-6 6.614584,6.614583 6.614584,6.614583"
       id="path5604"
       sodipodi:nodetypes="czc"
       inkscape:export-filename="/home/vitaly/dn2gamgam2.png"
       inkscape:export-xdpi="300"
       inkscape:export-ydpi="300" />
  </g>
</svg>
