<?xml version="1.0" encoding="UTF-8" standalone="no"?>
<!-- Created with Inkscape (http://www.inkscape.org/) -->

<svg
   width="210mm"
   height="297mm"
   viewBox="0 0 210 297"
   version="1.1"
   id="svg5"
   inkscape:version="1.1.1 (eb90963e84, 2021-10-02)"
   sodipodi:docname="dn2Vg.svg"
   xmlns:inkscape="http://www.inkscape.org/namespaces/inkscape"
   xmlns:sodipodi="http://sodipodi.sourceforge.net/DTD/sodipodi-0.dtd"
   xmlns="http://www.w3.org/2000/svg"
   xmlns:svg="http://www.w3.org/2000/svg">
  <sodipodi:namedview
     id="namedview7"
     pagecolor="#ffffff"
     bordercolor="#999999"
     borderopacity="1"
     inkscape:pageshadow="0"
     inkscape:pageopacity="0"
     inkscape:pagecheckerboard="0"
     inkscape:document-units="mm"
     showgrid="true"
     inkscape:zoom="3.0930415"
     inkscape:cx="258.16013"
     inkscape:cy="150.1758"
     inkscape:window-width="1920"
     inkscape:window-height="1015"
     inkscape:window-x="0"
     inkscape:window-y="0"
     inkscape:window-maximized="1"
     inkscape:current-layer="layer1">
    <inkscape:grid
       type="xygrid"
       id="grid824" />
  </sodipodi:namedview>
  <defs
     id="defs2" />
  <g
     inkscape:label="Layer 1"
     inkscape:groupmode="layer"
     id="layer1">
    <path
       style="fill:none;stroke:#000000;stroke-width:0.264583px;stroke-linecap:butt;stroke-linejoin:miter;stroke-opacity:1"
       d="m 64.818835,46.299006 39.691585,0.0031"
       id="path960"
       sodipodi:nodetypes="cc"
       inkscape:export-xdpi="300"
       inkscape:export-ydpi="300"
       inkscape:export-filename="/home/vitaly/dn2Vgam1.png" />
    <path
       style="fill:none;stroke:#000000;stroke-width:0.264583px;stroke-linecap:butt;stroke-linejoin:miter;stroke-opacity:1"
       d="m 64.818828,56.882339 39.691592,0.0031"
       id="path960-4"
       sodipodi:nodetypes="cc"
       inkscape:export-xdpi="300"
       inkscape:export-ydpi="300"
       inkscape:export-filename="/home/vitaly/dn2Vgam1.png" />
    <path
       style="fill:none;stroke:#000000;stroke-width:0.264583px;stroke-linecap:butt;stroke-linejoin:miter;stroke-opacity:1"
       d="m 64.822922,23.812501 11.906245,-1e-6"
       id="path960-3"
       sodipodi:nodetypes="cc"
       inkscape:export-xdpi="300"
       inkscape:export-ydpi="300"
       inkscape:export-filename="/home/vitaly/dn2Vgam2.png" />
    <path
       style="fill:none;stroke:#000000;stroke-width:0.264583px;stroke-linecap:butt;stroke-linejoin:miter;stroke-opacity:1"
       d="m 89.958333,23.8125 14.552087,0"
       id="path960-3-7"
       sodipodi:nodetypes="cc"
       inkscape:export-xdpi="300"
       inkscape:export-ydpi="300"
       inkscape:export-filename="/home/vitaly/dn2Vgam2.png" />
    <path
       style="fill:none;stroke:#000000;stroke-width:0.264583px;stroke-linecap:butt;stroke-linejoin:miter;stroke-opacity:1"
       d="m 64.8137,31.778108 39.89779,0.474557"
       id="path960-4-1"
       sodipodi:nodetypes="cc"
       inkscape:export-xdpi="300"
       inkscape:export-ydpi="300"
       inkscape:export-filename="/home/vitaly/dn2Vgam2.png" />
    <path
       style="fill:none;stroke:#000000;stroke-width:0.264583px;stroke-linecap:butt;stroke-linejoin:miter;stroke-opacity:1"
       d="m 76.729167,23.812501 c 0,0 0.70735,-1.42281 1.32292,-1.322916 0.97331,0.157947 0.33687,2.645833 1.32292,2.645833 0.98604,0 0.33687,-2.645833 1.32291,-2.645833 0.98605,0 0.33688,2.645833 1.32292,2.645833 0.98605,0 0.33687,-2.645833 1.32292,-2.645833 0.98604,0 0.33687,2.645833 1.32292,2.645833 0.98604,0 0.33687,-2.645833 1.32291,-2.645833 0.98605,0 0.33687,2.645833 1.32292,2.645833 0.98604,0 0.3496,-2.487886 1.32292,-2.645833 0.61557,-0.09989 1.32292,1.322916 1.32292,1.322916"
       id="path4242"
       sodipodi:nodetypes="caaaaaaaaac"
       inkscape:export-filename="/home/vitaly/dn2Vgam2.png"
       inkscape:export-xdpi="300"
       inkscape:export-ydpi="300" />
    <path
       style="fill:none;stroke:#000000;stroke-width:0.23665px;stroke-linecap:butt;stroke-linejoin:miter;stroke-opacity:1"
       d="m 88.640616,56.885428 c 0,0 -1.423088,-0.565433 -1.323436,-1.05792 0.157565,-0.778698 2.6457,-0.270328 2.645313,-1.059168 -3.88e-4,-0.788833 -2.645965,-0.268664 -2.646353,-1.057497 -3.87e-4,-0.78884 2.645701,-0.270336 2.645313,-1.059167 -3.87e-4,-0.78884 -2.645965,-0.268665 -2.646352,-1.057505 -3.88e-4,-0.788832 2.6457,-0.270327 2.645312,-1.059167 -3.87e-4,-0.788833 -2.645965,-0.268665 -2.646352,-1.057497 -3.88e-4,-0.78884 2.6457,-0.270328 2.645313,-1.059168 -3.88e-4,-0.788832 -2.488024,-0.278898 -2.646353,-1.057504 -0.100132,-0.492425 1.322396,-1.058752 1.322396,-1.058752"
       id="path4242-3"
       sodipodi:nodetypes="caaaaaaaaac"
       inkscape:export-filename="/home/vitaly/dn2Vgam1.png"
       inkscape:export-xdpi="300"
       inkscape:export-ydpi="300" />
    <path
       style="fill:none;stroke:#000000;stroke-width:0.264583px;stroke-linecap:butt;stroke-linejoin:miter;stroke-opacity:1"
       d="m 74.083333,46.302083 c 0,0 -0.714386,-1.41929 -0.265296,-1.851983 0.710079,-0.684154 2.319297,1.317107 2.910623,0.528039 0.591318,-0.789061 -1.915262,-1.856256 -1.323943,-2.645317 0.591325,-0.789068 2.319304,1.3171 2.910622,0.52804 0.591326,-0.789068 -1.915261,-1.856256 -1.323936,-2.645325 0.591319,-0.789061 2.319297,1.317109 2.910622,0.52804 0.59132,-0.789061 -1.915262,-1.856256 -1.323942,-2.645316 0.591325,-0.78907 2.319297,1.317107 2.910623,0.528039 0.591319,-0.789061 -1.781234,-1.771725 -1.323937,-2.645326 0.289217,-0.552502 1.851983,-0.265302 1.851983,-0.265302"
       id="path4242-3-6"
       sodipodi:nodetypes="caaaaaaaaac"
       inkscape:export-filename="/home/vitaly/dn2Vgam1.png"
       inkscape:export-xdpi="300"
       inkscape:export-ydpi="300" />
    <path
       style="fill:none;stroke:#000000;stroke-width:0.264583px;stroke-linecap:butt;stroke-linejoin:miter;stroke-opacity:1"
       d="m 84.553008,17.431928 c 0,0 0.0484,-1.588203 0.649425,-1.754557 0.950312,-0.263031 1.411211,2.26327 2.307127,1.851409 0.895906,-0.411858 -0.799058,-2.544685 0.09685,-2.956543 0.895915,-0.411861 1.41122,2.263268 2.307125,1.85141 0.895916,-0.411861 -0.799057,-2.544685 0.09686,-2.956547 0.895906,-0.411858 1.41121,2.263272 2.307126,1.85141 0.895907,-0.411858 -0.799058,-2.544686 0.09685,-2.956542 0.895915,-0.411862 1.411211,2.26327 2.307127,1.851409 0.895906,-0.411858 -0.721519,-2.406493 0.09686,-2.956547 0.517578,-0.347876 1.754559,0.64942 1.754559,0.64942"
       id="path4242-3-6-5"
       sodipodi:nodetypes="caaaaaaaaac"
       inkscape:export-filename="/home/vitaly/dn2Vgam2.png"
       inkscape:export-xdpi="300"
       inkscape:export-ydpi="300" />
    <path
       style="fill:none;stroke:#000000;stroke-width:0.264583px;stroke-linecap:butt;stroke-linejoin:miter;stroke-opacity:1"
       d="m 76.729167,23.8125 c 0,0 0,-6.614582 6.61459,-6.614583 6.61458,-1e-6 6.61459,6.614583 6.61459,6.614583"
       id="path5604"
       sodipodi:nodetypes="czc"
       inkscape:export-filename="/home/vitaly/dn2Vgam2.png"
       inkscape:export-xdpi="300"
       inkscape:export-ydpi="300" />
  </g>
</svg>
