<?xml version="1.0" encoding="utf-8" standalone="no"?>
<!DOCTYPE svg PUBLIC "-//W3C//DTD SVG 1.1//EN"
  "http://www.w3.org/Graphics/SVG/1.1/DTD/svg11.dtd">
<!-- Created with matplotlib (https://matplotlib.org/) -->
<svg height="576pt" version="1.1" viewBox="0 0 864 576" width="864pt" xmlns="http://www.w3.org/2000/svg" xmlns:xlink="http://www.w3.org/1999/xlink">
 <metadata>
  <rdf:RDF xmlns:cc="http://creativecommons.org/ns#" xmlns:dc="http://purl.org/dc/elements/1.1/" xmlns:rdf="http://www.w3.org/1999/02/22-rdf-syntax-ns#">
   <cc:Work>
    <dc:type rdf:resource="http://purl.org/dc/dcmitype/StillImage"/>
    <dc:date>2020-12-01T16:33:50.751155</dc:date>
    <dc:format>image/svg+xml</dc:format>
    <dc:creator>
     <cc:Agent>
      <dc:title>Matplotlib v3.3.3, https://matplotlib.org/</dc:title>
     </cc:Agent>
    </dc:creator>
   </cc:Work>
  </rdf:RDF>
 </metadata>
 <defs>
  <style type="text/css">*{stroke-linecap:butt;stroke-linejoin:round;}</style>
 </defs>
 <g id="figure_1">
  <g id="patch_1">
   <path d="M 0 576 
L 864 576 
L 864 0 
L 0 0 
z
" style="fill:#ffffff;"/>
  </g>
  <g id="axes_1">
   <g id="patch_2">
    <path d="M 82.01 511 
L 844.56 511 
L 844.56 26.28 
L 82.01 26.28 
z
" style="fill:#ffffff;"/>
   </g>
   <g id="matplotlib.axis_1">
    <g id="xtick_1">
     <g id="line2d_1">
      <path clip-path="url(#p02fbf48837)" d="M 82.01 511 
L 82.01 26.28 
" style="fill:none;stroke:#b0b0b0;stroke-linecap:square;stroke-width:0.8;"/>
     </g>
     <g id="line2d_2">
      <defs>
       <path d="M 0 0 
L 0 3.5 
" id="m765e36cef1" style="stroke:#000000;stroke-width:0.8;"/>
      </defs>
      <g>
       <use style="stroke:#000000;stroke-width:0.8;" x="82.01" xlink:href="#m765e36cef1" y="511"/>
      </g>
     </g>
     <g id="text_1">
      <!-- 2200 -->
      <g transform="translate(59.105 531.677187)scale(0.18 -0.18)">
       <defs>
        <path d="M 19.1875 8.296875 
L 53.609375 8.296875 
L 53.609375 0 
L 7.328125 0 
L 7.328125 8.296875 
Q 12.9375 14.109375 22.625 23.890625 
Q 32.328125 33.6875 34.8125 36.53125 
Q 39.546875 41.84375 41.421875 45.53125 
Q 43.3125 49.21875 43.3125 52.78125 
Q 43.3125 58.59375 39.234375 62.25 
Q 35.15625 65.921875 28.609375 65.921875 
Q 23.96875 65.921875 18.8125 64.3125 
Q 13.671875 62.703125 7.8125 59.421875 
L 7.8125 69.390625 
Q 13.765625 71.78125 18.9375 73 
Q 24.125 74.21875 28.421875 74.21875 
Q 39.75 74.21875 46.484375 68.546875 
Q 53.21875 62.890625 53.21875 53.421875 
Q 53.21875 48.921875 51.53125 44.890625 
Q 49.859375 40.875 45.40625 35.40625 
Q 44.1875 33.984375 37.640625 27.21875 
Q 31.109375 20.453125 19.1875 8.296875 
z
" id="DejaVuSans-50"/>
        <path d="M 31.78125 66.40625 
Q 24.171875 66.40625 20.328125 58.90625 
Q 16.5 51.421875 16.5 36.375 
Q 16.5 21.390625 20.328125 13.890625 
Q 24.171875 6.390625 31.78125 6.390625 
Q 39.453125 6.390625 43.28125 13.890625 
Q 47.125 21.390625 47.125 36.375 
Q 47.125 51.421875 43.28125 58.90625 
Q 39.453125 66.40625 31.78125 66.40625 
z
M 31.78125 74.21875 
Q 44.046875 74.21875 50.515625 64.515625 
Q 56.984375 54.828125 56.984375 36.375 
Q 56.984375 17.96875 50.515625 8.265625 
Q 44.046875 -1.421875 31.78125 -1.421875 
Q 19.53125 -1.421875 13.0625 8.265625 
Q 6.59375 17.96875 6.59375 36.375 
Q 6.59375 54.828125 13.0625 64.515625 
Q 19.53125 74.21875 31.78125 74.21875 
z
" id="DejaVuSans-48"/>
       </defs>
       <use xlink:href="#DejaVuSans-50"/>
       <use x="63.623047" xlink:href="#DejaVuSans-50"/>
       <use x="127.246094" xlink:href="#DejaVuSans-48"/>
       <use x="190.869141" xlink:href="#DejaVuSans-48"/>
      </g>
     </g>
    </g>
    <g id="xtick_2">
     <g id="line2d_3">
      <path clip-path="url(#p02fbf48837)" d="M 220.655455 511 
L 220.655455 26.28 
" style="fill:none;stroke:#b0b0b0;stroke-linecap:square;stroke-width:0.8;"/>
     </g>
     <g id="line2d_4">
      <g>
       <use style="stroke:#000000;stroke-width:0.8;" x="220.655455" xlink:href="#m765e36cef1" y="511"/>
      </g>
     </g>
     <g id="text_2">
      <!-- 2400 -->
      <g transform="translate(197.750455 531.677187)scale(0.18 -0.18)">
       <defs>
        <path d="M 37.796875 64.3125 
L 12.890625 25.390625 
L 37.796875 25.390625 
z
M 35.203125 72.90625 
L 47.609375 72.90625 
L 47.609375 25.390625 
L 58.015625 25.390625 
L 58.015625 17.1875 
L 47.609375 17.1875 
L 47.609375 0 
L 37.796875 0 
L 37.796875 17.1875 
L 4.890625 17.1875 
L 4.890625 26.703125 
z
" id="DejaVuSans-52"/>
       </defs>
       <use xlink:href="#DejaVuSans-50"/>
       <use x="63.623047" xlink:href="#DejaVuSans-52"/>
       <use x="127.246094" xlink:href="#DejaVuSans-48"/>
       <use x="190.869141" xlink:href="#DejaVuSans-48"/>
      </g>
     </g>
    </g>
    <g id="xtick_3">
     <g id="line2d_5">
      <path clip-path="url(#p02fbf48837)" d="M 359.300909 511 
L 359.300909 26.28 
" style="fill:none;stroke:#b0b0b0;stroke-linecap:square;stroke-width:0.8;"/>
     </g>
     <g id="line2d_6">
      <g>
       <use style="stroke:#000000;stroke-width:0.8;" x="359.300909" xlink:href="#m765e36cef1" y="511"/>
      </g>
     </g>
     <g id="text_3">
      <!-- 2600 -->
      <g transform="translate(336.395909 531.677187)scale(0.18 -0.18)">
       <defs>
        <path d="M 33.015625 40.375 
Q 26.375 40.375 22.484375 35.828125 
Q 18.609375 31.296875 18.609375 23.390625 
Q 18.609375 15.53125 22.484375 10.953125 
Q 26.375 6.390625 33.015625 6.390625 
Q 39.65625 6.390625 43.53125 10.953125 
Q 47.40625 15.53125 47.40625 23.390625 
Q 47.40625 31.296875 43.53125 35.828125 
Q 39.65625 40.375 33.015625 40.375 
z
M 52.59375 71.296875 
L 52.59375 62.3125 
Q 48.875 64.0625 45.09375 64.984375 
Q 41.3125 65.921875 37.59375 65.921875 
Q 27.828125 65.921875 22.671875 59.328125 
Q 17.53125 52.734375 16.796875 39.40625 
Q 19.671875 43.65625 24.015625 45.921875 
Q 28.375 48.1875 33.59375 48.1875 
Q 44.578125 48.1875 50.953125 41.515625 
Q 57.328125 34.859375 57.328125 23.390625 
Q 57.328125 12.15625 50.6875 5.359375 
Q 44.046875 -1.421875 33.015625 -1.421875 
Q 20.359375 -1.421875 13.671875 8.265625 
Q 6.984375 17.96875 6.984375 36.375 
Q 6.984375 53.65625 15.1875 63.9375 
Q 23.390625 74.21875 37.203125 74.21875 
Q 40.921875 74.21875 44.703125 73.484375 
Q 48.484375 72.75 52.59375 71.296875 
z
" id="DejaVuSans-54"/>
       </defs>
       <use xlink:href="#DejaVuSans-50"/>
       <use x="63.623047" xlink:href="#DejaVuSans-54"/>
       <use x="127.246094" xlink:href="#DejaVuSans-48"/>
       <use x="190.869141" xlink:href="#DejaVuSans-48"/>
      </g>
     </g>
    </g>
    <g id="xtick_4">
     <g id="line2d_7">
      <path clip-path="url(#p02fbf48837)" d="M 497.946364 511 
L 497.946364 26.28 
" style="fill:none;stroke:#b0b0b0;stroke-linecap:square;stroke-width:0.8;"/>
     </g>
     <g id="line2d_8">
      <g>
       <use style="stroke:#000000;stroke-width:0.8;" x="497.946364" xlink:href="#m765e36cef1" y="511"/>
      </g>
     </g>
     <g id="text_4">
      <!-- 2800 -->
      <g transform="translate(475.041364 531.677187)scale(0.18 -0.18)">
       <defs>
        <path d="M 31.78125 34.625 
Q 24.75 34.625 20.71875 30.859375 
Q 16.703125 27.09375 16.703125 20.515625 
Q 16.703125 13.921875 20.71875 10.15625 
Q 24.75 6.390625 31.78125 6.390625 
Q 38.8125 6.390625 42.859375 10.171875 
Q 46.921875 13.96875 46.921875 20.515625 
Q 46.921875 27.09375 42.890625 30.859375 
Q 38.875 34.625 31.78125 34.625 
z
M 21.921875 38.8125 
Q 15.578125 40.375 12.03125 44.71875 
Q 8.5 49.078125 8.5 55.328125 
Q 8.5 64.0625 14.71875 69.140625 
Q 20.953125 74.21875 31.78125 74.21875 
Q 42.671875 74.21875 48.875 69.140625 
Q 55.078125 64.0625 55.078125 55.328125 
Q 55.078125 49.078125 51.53125 44.71875 
Q 48 40.375 41.703125 38.8125 
Q 48.828125 37.15625 52.796875 32.3125 
Q 56.78125 27.484375 56.78125 20.515625 
Q 56.78125 9.90625 50.3125 4.234375 
Q 43.84375 -1.421875 31.78125 -1.421875 
Q 19.734375 -1.421875 13.25 4.234375 
Q 6.78125 9.90625 6.78125 20.515625 
Q 6.78125 27.484375 10.78125 32.3125 
Q 14.796875 37.15625 21.921875 38.8125 
z
M 18.3125 54.390625 
Q 18.3125 48.734375 21.84375 45.5625 
Q 25.390625 42.390625 31.78125 42.390625 
Q 38.140625 42.390625 41.71875 45.5625 
Q 45.3125 48.734375 45.3125 54.390625 
Q 45.3125 60.0625 41.71875 63.234375 
Q 38.140625 66.40625 31.78125 66.40625 
Q 25.390625 66.40625 21.84375 63.234375 
Q 18.3125 60.0625 18.3125 54.390625 
z
" id="DejaVuSans-56"/>
       </defs>
       <use xlink:href="#DejaVuSans-50"/>
       <use x="63.623047" xlink:href="#DejaVuSans-56"/>
       <use x="127.246094" xlink:href="#DejaVuSans-48"/>
       <use x="190.869141" xlink:href="#DejaVuSans-48"/>
      </g>
     </g>
    </g>
    <g id="xtick_5">
     <g id="line2d_9">
      <path clip-path="url(#p02fbf48837)" d="M 636.591818 511 
L 636.591818 26.28 
" style="fill:none;stroke:#b0b0b0;stroke-linecap:square;stroke-width:0.8;"/>
     </g>
     <g id="line2d_10">
      <g>
       <use style="stroke:#000000;stroke-width:0.8;" x="636.591818" xlink:href="#m765e36cef1" y="511"/>
      </g>
     </g>
     <g id="text_5">
      <!-- 3000 -->
      <g transform="translate(613.686818 531.677187)scale(0.18 -0.18)">
       <defs>
        <path d="M 40.578125 39.3125 
Q 47.65625 37.796875 51.625 33 
Q 55.609375 28.21875 55.609375 21.1875 
Q 55.609375 10.40625 48.1875 4.484375 
Q 40.765625 -1.421875 27.09375 -1.421875 
Q 22.515625 -1.421875 17.65625 -0.515625 
Q 12.796875 0.390625 7.625 2.203125 
L 7.625 11.71875 
Q 11.71875 9.328125 16.59375 8.109375 
Q 21.484375 6.890625 26.8125 6.890625 
Q 36.078125 6.890625 40.9375 10.546875 
Q 45.796875 14.203125 45.796875 21.1875 
Q 45.796875 27.640625 41.28125 31.265625 
Q 36.765625 34.90625 28.71875 34.90625 
L 20.21875 34.90625 
L 20.21875 43.015625 
L 29.109375 43.015625 
Q 36.375 43.015625 40.234375 45.921875 
Q 44.09375 48.828125 44.09375 54.296875 
Q 44.09375 59.90625 40.109375 62.90625 
Q 36.140625 65.921875 28.71875 65.921875 
Q 24.65625 65.921875 20.015625 65.03125 
Q 15.375 64.15625 9.8125 62.3125 
L 9.8125 71.09375 
Q 15.4375 72.65625 20.34375 73.4375 
Q 25.25 74.21875 29.59375 74.21875 
Q 40.828125 74.21875 47.359375 69.109375 
Q 53.90625 64.015625 53.90625 55.328125 
Q 53.90625 49.265625 50.4375 45.09375 
Q 46.96875 40.921875 40.578125 39.3125 
z
" id="DejaVuSans-51"/>
       </defs>
       <use xlink:href="#DejaVuSans-51"/>
       <use x="63.623047" xlink:href="#DejaVuSans-48"/>
       <use x="127.246094" xlink:href="#DejaVuSans-48"/>
       <use x="190.869141" xlink:href="#DejaVuSans-48"/>
      </g>
     </g>
    </g>
    <g id="xtick_6">
     <g id="line2d_11">
      <path clip-path="url(#p02fbf48837)" d="M 775.237273 511 
L 775.237273 26.28 
" style="fill:none;stroke:#b0b0b0;stroke-linecap:square;stroke-width:0.8;"/>
     </g>
     <g id="line2d_12">
      <g>
       <use style="stroke:#000000;stroke-width:0.8;" x="775.237273" xlink:href="#m765e36cef1" y="511"/>
      </g>
     </g>
     <g id="text_6">
      <!-- 3200 -->
      <g transform="translate(752.332273 531.677187)scale(0.18 -0.18)">
       <use xlink:href="#DejaVuSans-51"/>
       <use x="63.623047" xlink:href="#DejaVuSans-50"/>
       <use x="127.246094" xlink:href="#DejaVuSans-48"/>
       <use x="190.869141" xlink:href="#DejaVuSans-48"/>
      </g>
     </g>
    </g>
    <g id="xtick_7">
     <g id="line2d_13">
      <path clip-path="url(#p02fbf48837)" d="M 116.671364 511 
L 116.671364 26.28 
" style="fill:none;stroke:#b0b0b0;stroke-dasharray:2.96,1.28;stroke-dashoffset:0;stroke-width:0.8;"/>
     </g>
     <g id="line2d_14">
      <defs>
       <path d="M 0 0 
L 0 2 
" id="mae3e647415" style="stroke:#000000;stroke-width:0.6;"/>
      </defs>
      <g>
       <use style="stroke:#000000;stroke-width:0.6;" x="116.671364" xlink:href="#mae3e647415" y="511"/>
      </g>
     </g>
    </g>
    <g id="xtick_8">
     <g id="line2d_15">
      <path clip-path="url(#p02fbf48837)" d="M 151.332727 511 
L 151.332727 26.28 
" style="fill:none;stroke:#b0b0b0;stroke-dasharray:2.96,1.28;stroke-dashoffset:0;stroke-width:0.8;"/>
     </g>
     <g id="line2d_16">
      <g>
       <use style="stroke:#000000;stroke-width:0.6;" x="151.332727" xlink:href="#mae3e647415" y="511"/>
      </g>
     </g>
    </g>
    <g id="xtick_9">
     <g id="line2d_17">
      <path clip-path="url(#p02fbf48837)" d="M 185.994091 511 
L 185.994091 26.28 
" style="fill:none;stroke:#b0b0b0;stroke-dasharray:2.96,1.28;stroke-dashoffset:0;stroke-width:0.8;"/>
     </g>
     <g id="line2d_18">
      <g>
       <use style="stroke:#000000;stroke-width:0.6;" x="185.994091" xlink:href="#mae3e647415" y="511"/>
      </g>
     </g>
    </g>
    <g id="xtick_10">
     <g id="line2d_19">
      <path clip-path="url(#p02fbf48837)" d="M 255.316818 511 
L 255.316818 26.28 
" style="fill:none;stroke:#b0b0b0;stroke-dasharray:2.96,1.28;stroke-dashoffset:0;stroke-width:0.8;"/>
     </g>
     <g id="line2d_20">
      <g>
       <use style="stroke:#000000;stroke-width:0.6;" x="255.316818" xlink:href="#mae3e647415" y="511"/>
      </g>
     </g>
    </g>
    <g id="xtick_11">
     <g id="line2d_21">
      <path clip-path="url(#p02fbf48837)" d="M 289.978182 511 
L 289.978182 26.28 
" style="fill:none;stroke:#b0b0b0;stroke-dasharray:2.96,1.28;stroke-dashoffset:0;stroke-width:0.8;"/>
     </g>
     <g id="line2d_22">
      <g>
       <use style="stroke:#000000;stroke-width:0.6;" x="289.978182" xlink:href="#mae3e647415" y="511"/>
      </g>
     </g>
    </g>
    <g id="xtick_12">
     <g id="line2d_23">
      <path clip-path="url(#p02fbf48837)" d="M 324.639545 511 
L 324.639545 26.28 
" style="fill:none;stroke:#b0b0b0;stroke-dasharray:2.96,1.28;stroke-dashoffset:0;stroke-width:0.8;"/>
     </g>
     <g id="line2d_24">
      <g>
       <use style="stroke:#000000;stroke-width:0.6;" x="324.639545" xlink:href="#mae3e647415" y="511"/>
      </g>
     </g>
    </g>
    <g id="xtick_13">
     <g id="line2d_25">
      <path clip-path="url(#p02fbf48837)" d="M 393.962273 511 
L 393.962273 26.28 
" style="fill:none;stroke:#b0b0b0;stroke-dasharray:2.96,1.28;stroke-dashoffset:0;stroke-width:0.8;"/>
     </g>
     <g id="line2d_26">
      <g>
       <use style="stroke:#000000;stroke-width:0.6;" x="393.962273" xlink:href="#mae3e647415" y="511"/>
      </g>
     </g>
    </g>
    <g id="xtick_14">
     <g id="line2d_27">
      <path clip-path="url(#p02fbf48837)" d="M 428.623636 511 
L 428.623636 26.28 
" style="fill:none;stroke:#b0b0b0;stroke-dasharray:2.96,1.28;stroke-dashoffset:0;stroke-width:0.8;"/>
     </g>
     <g id="line2d_28">
      <g>
       <use style="stroke:#000000;stroke-width:0.6;" x="428.623636" xlink:href="#mae3e647415" y="511"/>
      </g>
     </g>
    </g>
    <g id="xtick_15">
     <g id="line2d_29">
      <path clip-path="url(#p02fbf48837)" d="M 463.285 511 
L 463.285 26.28 
" style="fill:none;stroke:#b0b0b0;stroke-dasharray:2.96,1.28;stroke-dashoffset:0;stroke-width:0.8;"/>
     </g>
     <g id="line2d_30">
      <g>
       <use style="stroke:#000000;stroke-width:0.6;" x="463.285" xlink:href="#mae3e647415" y="511"/>
      </g>
     </g>
    </g>
    <g id="xtick_16">
     <g id="line2d_31">
      <path clip-path="url(#p02fbf48837)" d="M 532.607727 511 
L 532.607727 26.28 
" style="fill:none;stroke:#b0b0b0;stroke-dasharray:2.96,1.28;stroke-dashoffset:0;stroke-width:0.8;"/>
     </g>
     <g id="line2d_32">
      <g>
       <use style="stroke:#000000;stroke-width:0.6;" x="532.607727" xlink:href="#mae3e647415" y="511"/>
      </g>
     </g>
    </g>
    <g id="xtick_17">
     <g id="line2d_33">
      <path clip-path="url(#p02fbf48837)" d="M 567.269091 511 
L 567.269091 26.28 
" style="fill:none;stroke:#b0b0b0;stroke-dasharray:2.96,1.28;stroke-dashoffset:0;stroke-width:0.8;"/>
     </g>
     <g id="line2d_34">
      <g>
       <use style="stroke:#000000;stroke-width:0.6;" x="567.269091" xlink:href="#mae3e647415" y="511"/>
      </g>
     </g>
    </g>
    <g id="xtick_18">
     <g id="line2d_35">
      <path clip-path="url(#p02fbf48837)" d="M 601.930455 511 
L 601.930455 26.28 
" style="fill:none;stroke:#b0b0b0;stroke-dasharray:2.96,1.28;stroke-dashoffset:0;stroke-width:0.8;"/>
     </g>
     <g id="line2d_36">
      <g>
       <use style="stroke:#000000;stroke-width:0.6;" x="601.930455" xlink:href="#mae3e647415" y="511"/>
      </g>
     </g>
    </g>
    <g id="xtick_19">
     <g id="line2d_37">
      <path clip-path="url(#p02fbf48837)" d="M 671.253182 511 
L 671.253182 26.28 
" style="fill:none;stroke:#b0b0b0;stroke-dasharray:2.96,1.28;stroke-dashoffset:0;stroke-width:0.8;"/>
     </g>
     <g id="line2d_38">
      <g>
       <use style="stroke:#000000;stroke-width:0.6;" x="671.253182" xlink:href="#mae3e647415" y="511"/>
      </g>
     </g>
    </g>
    <g id="xtick_20">
     <g id="line2d_39">
      <path clip-path="url(#p02fbf48837)" d="M 705.914545 511 
L 705.914545 26.28 
" style="fill:none;stroke:#b0b0b0;stroke-dasharray:2.96,1.28;stroke-dashoffset:0;stroke-width:0.8;"/>
     </g>
     <g id="line2d_40">
      <g>
       <use style="stroke:#000000;stroke-width:0.6;" x="705.914545" xlink:href="#mae3e647415" y="511"/>
      </g>
     </g>
    </g>
    <g id="xtick_21">
     <g id="line2d_41">
      <path clip-path="url(#p02fbf48837)" d="M 740.575909 511 
L 740.575909 26.28 
" style="fill:none;stroke:#b0b0b0;stroke-dasharray:2.96,1.28;stroke-dashoffset:0;stroke-width:0.8;"/>
     </g>
     <g id="line2d_42">
      <g>
       <use style="stroke:#000000;stroke-width:0.6;" x="740.575909" xlink:href="#mae3e647415" y="511"/>
      </g>
     </g>
    </g>
    <g id="xtick_22">
     <g id="line2d_43">
      <path clip-path="url(#p02fbf48837)" d="M 809.898636 511 
L 809.898636 26.28 
" style="fill:none;stroke:#b0b0b0;stroke-dasharray:2.96,1.28;stroke-dashoffset:0;stroke-width:0.8;"/>
     </g>
     <g id="line2d_44">
      <g>
       <use style="stroke:#000000;stroke-width:0.6;" x="809.898636" xlink:href="#mae3e647415" y="511"/>
      </g>
     </g>
    </g>
    <g id="xtick_23">
     <g id="line2d_45">
      <path clip-path="url(#p02fbf48837)" d="M 844.56 511 
L 844.56 26.28 
" style="fill:none;stroke:#b0b0b0;stroke-dasharray:2.96,1.28;stroke-dashoffset:0;stroke-width:0.8;"/>
     </g>
     <g id="line2d_46">
      <g>
       <use style="stroke:#000000;stroke-width:0.6;" x="844.56" xlink:href="#mae3e647415" y="511"/>
      </g>
     </g>
    </g>
    <g id="text_7">
     <!-- Mass, MeV -->
     <g transform="translate(415.447188 553.097813)scale(0.18 -0.18)">
      <defs>
       <path d="M 9.8125 72.90625 
L 24.515625 72.90625 
L 43.109375 23.296875 
L 61.8125 72.90625 
L 76.515625 72.90625 
L 76.515625 0 
L 66.890625 0 
L 66.890625 64.015625 
L 48.09375 14.015625 
L 38.1875 14.015625 
L 19.390625 64.015625 
L 19.390625 0 
L 9.8125 0 
z
" id="DejaVuSans-77"/>
       <path d="M 34.28125 27.484375 
Q 23.390625 27.484375 19.1875 25 
Q 14.984375 22.515625 14.984375 16.5 
Q 14.984375 11.71875 18.140625 8.90625 
Q 21.296875 6.109375 26.703125 6.109375 
Q 34.1875 6.109375 38.703125 11.40625 
Q 43.21875 16.703125 43.21875 25.484375 
L 43.21875 27.484375 
z
M 52.203125 31.203125 
L 52.203125 0 
L 43.21875 0 
L 43.21875 8.296875 
Q 40.140625 3.328125 35.546875 0.953125 
Q 30.953125 -1.421875 24.3125 -1.421875 
Q 15.921875 -1.421875 10.953125 3.296875 
Q 6 8.015625 6 15.921875 
Q 6 25.140625 12.171875 29.828125 
Q 18.359375 34.515625 30.609375 34.515625 
L 43.21875 34.515625 
L 43.21875 35.40625 
Q 43.21875 41.609375 39.140625 45 
Q 35.0625 48.390625 27.6875 48.390625 
Q 23 48.390625 18.546875 47.265625 
Q 14.109375 46.140625 10.015625 43.890625 
L 10.015625 52.203125 
Q 14.9375 54.109375 19.578125 55.046875 
Q 24.21875 56 28.609375 56 
Q 40.484375 56 46.34375 49.84375 
Q 52.203125 43.703125 52.203125 31.203125 
z
" id="DejaVuSans-97"/>
       <path d="M 44.28125 53.078125 
L 44.28125 44.578125 
Q 40.484375 46.53125 36.375 47.5 
Q 32.28125 48.484375 27.875 48.484375 
Q 21.1875 48.484375 17.84375 46.4375 
Q 14.5 44.390625 14.5 40.28125 
Q 14.5 37.15625 16.890625 35.375 
Q 19.28125 33.59375 26.515625 31.984375 
L 29.59375 31.296875 
Q 39.15625 29.25 43.1875 25.515625 
Q 47.21875 21.78125 47.21875 15.09375 
Q 47.21875 7.46875 41.1875 3.015625 
Q 35.15625 -1.421875 24.609375 -1.421875 
Q 20.21875 -1.421875 15.453125 -0.5625 
Q 10.6875 0.296875 5.421875 2 
L 5.421875 11.28125 
Q 10.40625 8.6875 15.234375 7.390625 
Q 20.0625 6.109375 24.8125 6.109375 
Q 31.15625 6.109375 34.5625 8.28125 
Q 37.984375 10.453125 37.984375 14.40625 
Q 37.984375 18.0625 35.515625 20.015625 
Q 33.0625 21.96875 24.703125 23.78125 
L 21.578125 24.515625 
Q 13.234375 26.265625 9.515625 29.90625 
Q 5.8125 33.546875 5.8125 39.890625 
Q 5.8125 47.609375 11.28125 51.796875 
Q 16.75 56 26.8125 56 
Q 31.78125 56 36.171875 55.265625 
Q 40.578125 54.546875 44.28125 53.078125 
z
" id="DejaVuSans-115"/>
       <path d="M 11.71875 12.40625 
L 22.015625 12.40625 
L 22.015625 4 
L 14.015625 -11.625 
L 7.71875 -11.625 
L 11.71875 4 
z
" id="DejaVuSans-44"/>
       <path id="DejaVuSans-32"/>
       <path d="M 56.203125 29.59375 
L 56.203125 25.203125 
L 14.890625 25.203125 
Q 15.484375 15.921875 20.484375 11.0625 
Q 25.484375 6.203125 34.421875 6.203125 
Q 39.59375 6.203125 44.453125 7.46875 
Q 49.3125 8.734375 54.109375 11.28125 
L 54.109375 2.78125 
Q 49.265625 0.734375 44.1875 -0.34375 
Q 39.109375 -1.421875 33.890625 -1.421875 
Q 20.796875 -1.421875 13.15625 6.1875 
Q 5.515625 13.8125 5.515625 26.8125 
Q 5.515625 40.234375 12.765625 48.109375 
Q 20.015625 56 32.328125 56 
Q 43.359375 56 49.78125 48.890625 
Q 56.203125 41.796875 56.203125 29.59375 
z
M 47.21875 32.234375 
Q 47.125 39.59375 43.09375 43.984375 
Q 39.0625 48.390625 32.421875 48.390625 
Q 24.90625 48.390625 20.390625 44.140625 
Q 15.875 39.890625 15.1875 32.171875 
z
" id="DejaVuSans-101"/>
       <path d="M 28.609375 0 
L 0.78125 72.90625 
L 11.078125 72.90625 
L 34.1875 11.53125 
L 57.328125 72.90625 
L 67.578125 72.90625 
L 39.796875 0 
z
" id="DejaVuSans-86"/>
      </defs>
      <use xlink:href="#DejaVuSans-77"/>
      <use x="86.279297" xlink:href="#DejaVuSans-97"/>
      <use x="147.558594" xlink:href="#DejaVuSans-115"/>
      <use x="199.658203" xlink:href="#DejaVuSans-115"/>
      <use x="251.757812" xlink:href="#DejaVuSans-44"/>
      <use x="283.544922" xlink:href="#DejaVuSans-32"/>
      <use x="315.332031" xlink:href="#DejaVuSans-77"/>
      <use x="401.611328" xlink:href="#DejaVuSans-101"/>
      <use x="463.134766" xlink:href="#DejaVuSans-86"/>
     </g>
    </g>
   </g>
   <g id="matplotlib.axis_2">
    <g id="ytick_1">
     <g id="line2d_47">
      <path clip-path="url(#p02fbf48837)" d="M 82.01 511 
L 844.56 511 
" style="fill:none;stroke:#b0b0b0;stroke-linecap:square;stroke-width:0.8;"/>
     </g>
     <g id="line2d_48">
      <defs>
       <path d="M 0 0 
L -3.5 0 
" id="mb50925265b" style="stroke:#000000;stroke-width:0.8;"/>
      </defs>
      <g>
       <use style="stroke:#000000;stroke-width:0.8;" x="82.01" xlink:href="#mb50925265b" y="511"/>
      </g>
     </g>
     <g id="text_8">
      <!-- 0 -->
      <g transform="translate(63.5575 517.838594)scale(0.18 -0.18)">
       <use xlink:href="#DejaVuSans-48"/>
      </g>
     </g>
    </g>
    <g id="ytick_2">
     <g id="line2d_49">
      <path clip-path="url(#p02fbf48837)" d="M 82.01 450.41 
L 844.56 450.41 
" style="fill:none;stroke:#b0b0b0;stroke-linecap:square;stroke-width:0.8;"/>
     </g>
     <g id="line2d_50">
      <g>
       <use style="stroke:#000000;stroke-width:0.8;" x="82.01" xlink:href="#mb50925265b" y="450.41"/>
      </g>
     </g>
     <g id="text_9">
      <!-- 50 -->
      <g transform="translate(52.105 457.248594)scale(0.18 -0.18)">
       <defs>
        <path d="M 10.796875 72.90625 
L 49.515625 72.90625 
L 49.515625 64.59375 
L 19.828125 64.59375 
L 19.828125 46.734375 
Q 21.96875 47.46875 24.109375 47.828125 
Q 26.265625 48.1875 28.421875 48.1875 
Q 40.625 48.1875 47.75 41.5 
Q 54.890625 34.8125 54.890625 23.390625 
Q 54.890625 11.625 47.5625 5.09375 
Q 40.234375 -1.421875 26.90625 -1.421875 
Q 22.3125 -1.421875 17.546875 -0.640625 
Q 12.796875 0.140625 7.71875 1.703125 
L 7.71875 11.625 
Q 12.109375 9.234375 16.796875 8.0625 
Q 21.484375 6.890625 26.703125 6.890625 
Q 35.15625 6.890625 40.078125 11.328125 
Q 45.015625 15.765625 45.015625 23.390625 
Q 45.015625 31 40.078125 35.4375 
Q 35.15625 39.890625 26.703125 39.890625 
Q 22.75 39.890625 18.8125 39.015625 
Q 14.890625 38.140625 10.796875 36.28125 
z
" id="DejaVuSans-53"/>
       </defs>
       <use xlink:href="#DejaVuSans-53"/>
       <use x="63.623047" xlink:href="#DejaVuSans-48"/>
      </g>
     </g>
    </g>
    <g id="ytick_3">
     <g id="line2d_51">
      <path clip-path="url(#p02fbf48837)" d="M 82.01 389.82 
L 844.56 389.82 
" style="fill:none;stroke:#b0b0b0;stroke-linecap:square;stroke-width:0.8;"/>
     </g>
     <g id="line2d_52">
      <g>
       <use style="stroke:#000000;stroke-width:0.8;" x="82.01" xlink:href="#mb50925265b" y="389.82"/>
      </g>
     </g>
     <g id="text_10">
      <!-- 100 -->
      <g transform="translate(40.6525 396.658594)scale(0.18 -0.18)">
       <defs>
        <path d="M 12.40625 8.296875 
L 28.515625 8.296875 
L 28.515625 63.921875 
L 10.984375 60.40625 
L 10.984375 69.390625 
L 28.421875 72.90625 
L 38.28125 72.90625 
L 38.28125 8.296875 
L 54.390625 8.296875 
L 54.390625 0 
L 12.40625 0 
z
" id="DejaVuSans-49"/>
       </defs>
       <use xlink:href="#DejaVuSans-49"/>
       <use x="63.623047" xlink:href="#DejaVuSans-48"/>
       <use x="127.246094" xlink:href="#DejaVuSans-48"/>
      </g>
     </g>
    </g>
    <g id="ytick_4">
     <g id="line2d_53">
      <path clip-path="url(#p02fbf48837)" d="M 82.01 329.23 
L 844.56 329.23 
" style="fill:none;stroke:#b0b0b0;stroke-linecap:square;stroke-width:0.8;"/>
     </g>
     <g id="line2d_54">
      <g>
       <use style="stroke:#000000;stroke-width:0.8;" x="82.01" xlink:href="#mb50925265b" y="329.23"/>
      </g>
     </g>
     <g id="text_11">
      <!-- 150 -->
      <g transform="translate(40.6525 336.068594)scale(0.18 -0.18)">
       <use xlink:href="#DejaVuSans-49"/>
       <use x="63.623047" xlink:href="#DejaVuSans-53"/>
       <use x="127.246094" xlink:href="#DejaVuSans-48"/>
      </g>
     </g>
    </g>
    <g id="ytick_5">
     <g id="line2d_55">
      <path clip-path="url(#p02fbf48837)" d="M 82.01 268.64 
L 844.56 268.64 
" style="fill:none;stroke:#b0b0b0;stroke-linecap:square;stroke-width:0.8;"/>
     </g>
     <g id="line2d_56">
      <g>
       <use style="stroke:#000000;stroke-width:0.8;" x="82.01" xlink:href="#mb50925265b" y="268.64"/>
      </g>
     </g>
     <g id="text_12">
      <!-- 200 -->
      <g transform="translate(40.6525 275.478594)scale(0.18 -0.18)">
       <use xlink:href="#DejaVuSans-50"/>
       <use x="63.623047" xlink:href="#DejaVuSans-48"/>
       <use x="127.246094" xlink:href="#DejaVuSans-48"/>
      </g>
     </g>
    </g>
    <g id="ytick_6">
     <g id="line2d_57">
      <path clip-path="url(#p02fbf48837)" d="M 82.01 208.05 
L 844.56 208.05 
" style="fill:none;stroke:#b0b0b0;stroke-linecap:square;stroke-width:0.8;"/>
     </g>
     <g id="line2d_58">
      <g>
       <use style="stroke:#000000;stroke-width:0.8;" x="82.01" xlink:href="#mb50925265b" y="208.05"/>
      </g>
     </g>
     <g id="text_13">
      <!-- 250 -->
      <g transform="translate(40.6525 214.888594)scale(0.18 -0.18)">
       <use xlink:href="#DejaVuSans-50"/>
       <use x="63.623047" xlink:href="#DejaVuSans-53"/>
       <use x="127.246094" xlink:href="#DejaVuSans-48"/>
      </g>
     </g>
    </g>
    <g id="ytick_7">
     <g id="line2d_59">
      <path clip-path="url(#p02fbf48837)" d="M 82.01 147.46 
L 844.56 147.46 
" style="fill:none;stroke:#b0b0b0;stroke-linecap:square;stroke-width:0.8;"/>
     </g>
     <g id="line2d_60">
      <g>
       <use style="stroke:#000000;stroke-width:0.8;" x="82.01" xlink:href="#mb50925265b" y="147.46"/>
      </g>
     </g>
     <g id="text_14">
      <!-- 300 -->
      <g transform="translate(40.6525 154.298594)scale(0.18 -0.18)">
       <use xlink:href="#DejaVuSans-51"/>
       <use x="63.623047" xlink:href="#DejaVuSans-48"/>
       <use x="127.246094" xlink:href="#DejaVuSans-48"/>
      </g>
     </g>
    </g>
    <g id="ytick_8">
     <g id="line2d_61">
      <path clip-path="url(#p02fbf48837)" d="M 82.01 86.87 
L 844.56 86.87 
" style="fill:none;stroke:#b0b0b0;stroke-linecap:square;stroke-width:0.8;"/>
     </g>
     <g id="line2d_62">
      <g>
       <use style="stroke:#000000;stroke-width:0.8;" x="82.01" xlink:href="#mb50925265b" y="86.87"/>
      </g>
     </g>
     <g id="text_15">
      <!-- 350 -->
      <g transform="translate(40.6525 93.708594)scale(0.18 -0.18)">
       <use xlink:href="#DejaVuSans-51"/>
       <use x="63.623047" xlink:href="#DejaVuSans-53"/>
       <use x="127.246094" xlink:href="#DejaVuSans-48"/>
      </g>
     </g>
    </g>
    <g id="ytick_9">
     <g id="line2d_63">
      <path clip-path="url(#p02fbf48837)" d="M 82.01 26.28 
L 844.56 26.28 
" style="fill:none;stroke:#b0b0b0;stroke-linecap:square;stroke-width:0.8;"/>
     </g>
     <g id="line2d_64">
      <g>
       <use style="stroke:#000000;stroke-width:0.8;" x="82.01" xlink:href="#mb50925265b" y="26.28"/>
      </g>
     </g>
     <g id="text_16">
      <!-- 400 -->
      <g transform="translate(40.6525 33.118594)scale(0.18 -0.18)">
       <use xlink:href="#DejaVuSans-52"/>
       <use x="63.623047" xlink:href="#DejaVuSans-48"/>
       <use x="127.246094" xlink:href="#DejaVuSans-48"/>
      </g>
     </g>
    </g>
    <g id="ytick_10">
     <g id="line2d_65">
      <path clip-path="url(#p02fbf48837)" d="M 82.01 498.882 
L 844.56 498.882 
" style="fill:none;stroke:#b0b0b0;stroke-dasharray:2.96,1.28;stroke-dashoffset:0;stroke-width:0.8;"/>
     </g>
     <g id="line2d_66">
      <defs>
       <path d="M 0 0 
L -2 0 
" id="m22819da167" style="stroke:#000000;stroke-width:0.6;"/>
      </defs>
      <g>
       <use style="stroke:#000000;stroke-width:0.6;" x="82.01" xlink:href="#m22819da167" y="498.882"/>
      </g>
     </g>
    </g>
    <g id="ytick_11">
     <g id="line2d_67">
      <path clip-path="url(#p02fbf48837)" d="M 82.01 486.764 
L 844.56 486.764 
" style="fill:none;stroke:#b0b0b0;stroke-dasharray:2.96,1.28;stroke-dashoffset:0;stroke-width:0.8;"/>
     </g>
     <g id="line2d_68">
      <g>
       <use style="stroke:#000000;stroke-width:0.6;" x="82.01" xlink:href="#m22819da167" y="486.764"/>
      </g>
     </g>
    </g>
    <g id="ytick_12">
     <g id="line2d_69">
      <path clip-path="url(#p02fbf48837)" d="M 82.01 474.646 
L 844.56 474.646 
" style="fill:none;stroke:#b0b0b0;stroke-dasharray:2.96,1.28;stroke-dashoffset:0;stroke-width:0.8;"/>
     </g>
     <g id="line2d_70">
      <g>
       <use style="stroke:#000000;stroke-width:0.6;" x="82.01" xlink:href="#m22819da167" y="474.646"/>
      </g>
     </g>
    </g>
    <g id="ytick_13">
     <g id="line2d_71">
      <path clip-path="url(#p02fbf48837)" d="M 82.01 462.528 
L 844.56 462.528 
" style="fill:none;stroke:#b0b0b0;stroke-dasharray:2.96,1.28;stroke-dashoffset:0;stroke-width:0.8;"/>
     </g>
     <g id="line2d_72">
      <g>
       <use style="stroke:#000000;stroke-width:0.6;" x="82.01" xlink:href="#m22819da167" y="462.528"/>
      </g>
     </g>
    </g>
    <g id="ytick_14">
     <g id="line2d_73">
      <path clip-path="url(#p02fbf48837)" d="M 82.01 438.292 
L 844.56 438.292 
" style="fill:none;stroke:#b0b0b0;stroke-dasharray:2.96,1.28;stroke-dashoffset:0;stroke-width:0.8;"/>
     </g>
     <g id="line2d_74">
      <g>
       <use style="stroke:#000000;stroke-width:0.6;" x="82.01" xlink:href="#m22819da167" y="438.292"/>
      </g>
     </g>
    </g>
    <g id="ytick_15">
     <g id="line2d_75">
      <path clip-path="url(#p02fbf48837)" d="M 82.01 426.174 
L 844.56 426.174 
" style="fill:none;stroke:#b0b0b0;stroke-dasharray:2.96,1.28;stroke-dashoffset:0;stroke-width:0.8;"/>
     </g>
     <g id="line2d_76">
      <g>
       <use style="stroke:#000000;stroke-width:0.6;" x="82.01" xlink:href="#m22819da167" y="426.174"/>
      </g>
     </g>
    </g>
    <g id="ytick_16">
     <g id="line2d_77">
      <path clip-path="url(#p02fbf48837)" d="M 82.01 414.056 
L 844.56 414.056 
" style="fill:none;stroke:#b0b0b0;stroke-dasharray:2.96,1.28;stroke-dashoffset:0;stroke-width:0.8;"/>
     </g>
     <g id="line2d_78">
      <g>
       <use style="stroke:#000000;stroke-width:0.6;" x="82.01" xlink:href="#m22819da167" y="414.056"/>
      </g>
     </g>
    </g>
    <g id="ytick_17">
     <g id="line2d_79">
      <path clip-path="url(#p02fbf48837)" d="M 82.01 401.938 
L 844.56 401.938 
" style="fill:none;stroke:#b0b0b0;stroke-dasharray:2.96,1.28;stroke-dashoffset:0;stroke-width:0.8;"/>
     </g>
     <g id="line2d_80">
      <g>
       <use style="stroke:#000000;stroke-width:0.6;" x="82.01" xlink:href="#m22819da167" y="401.938"/>
      </g>
     </g>
    </g>
    <g id="ytick_18">
     <g id="line2d_81">
      <path clip-path="url(#p02fbf48837)" d="M 82.01 377.702 
L 844.56 377.702 
" style="fill:none;stroke:#b0b0b0;stroke-dasharray:2.96,1.28;stroke-dashoffset:0;stroke-width:0.8;"/>
     </g>
     <g id="line2d_82">
      <g>
       <use style="stroke:#000000;stroke-width:0.6;" x="82.01" xlink:href="#m22819da167" y="377.702"/>
      </g>
     </g>
    </g>
    <g id="ytick_19">
     <g id="line2d_83">
      <path clip-path="url(#p02fbf48837)" d="M 82.01 365.584 
L 844.56 365.584 
" style="fill:none;stroke:#b0b0b0;stroke-dasharray:2.96,1.28;stroke-dashoffset:0;stroke-width:0.8;"/>
     </g>
     <g id="line2d_84">
      <g>
       <use style="stroke:#000000;stroke-width:0.6;" x="82.01" xlink:href="#m22819da167" y="365.584"/>
      </g>
     </g>
    </g>
    <g id="ytick_20">
     <g id="line2d_85">
      <path clip-path="url(#p02fbf48837)" d="M 82.01 353.466 
L 844.56 353.466 
" style="fill:none;stroke:#b0b0b0;stroke-dasharray:2.96,1.28;stroke-dashoffset:0;stroke-width:0.8;"/>
     </g>
     <g id="line2d_86">
      <g>
       <use style="stroke:#000000;stroke-width:0.6;" x="82.01" xlink:href="#m22819da167" y="353.466"/>
      </g>
     </g>
    </g>
    <g id="ytick_21">
     <g id="line2d_87">
      <path clip-path="url(#p02fbf48837)" d="M 82.01 341.348 
L 844.56 341.348 
" style="fill:none;stroke:#b0b0b0;stroke-dasharray:2.96,1.28;stroke-dashoffset:0;stroke-width:0.8;"/>
     </g>
     <g id="line2d_88">
      <g>
       <use style="stroke:#000000;stroke-width:0.6;" x="82.01" xlink:href="#m22819da167" y="341.348"/>
      </g>
     </g>
    </g>
    <g id="ytick_22">
     <g id="line2d_89">
      <path clip-path="url(#p02fbf48837)" d="M 82.01 317.112 
L 844.56 317.112 
" style="fill:none;stroke:#b0b0b0;stroke-dasharray:2.96,1.28;stroke-dashoffset:0;stroke-width:0.8;"/>
     </g>
     <g id="line2d_90">
      <g>
       <use style="stroke:#000000;stroke-width:0.6;" x="82.01" xlink:href="#m22819da167" y="317.112"/>
      </g>
     </g>
    </g>
    <g id="ytick_23">
     <g id="line2d_91">
      <path clip-path="url(#p02fbf48837)" d="M 82.01 304.994 
L 844.56 304.994 
" style="fill:none;stroke:#b0b0b0;stroke-dasharray:2.96,1.28;stroke-dashoffset:0;stroke-width:0.8;"/>
     </g>
     <g id="line2d_92">
      <g>
       <use style="stroke:#000000;stroke-width:0.6;" x="82.01" xlink:href="#m22819da167" y="304.994"/>
      </g>
     </g>
    </g>
    <g id="ytick_24">
     <g id="line2d_93">
      <path clip-path="url(#p02fbf48837)" d="M 82.01 292.876 
L 844.56 292.876 
" style="fill:none;stroke:#b0b0b0;stroke-dasharray:2.96,1.28;stroke-dashoffset:0;stroke-width:0.8;"/>
     </g>
     <g id="line2d_94">
      <g>
       <use style="stroke:#000000;stroke-width:0.6;" x="82.01" xlink:href="#m22819da167" y="292.876"/>
      </g>
     </g>
    </g>
    <g id="ytick_25">
     <g id="line2d_95">
      <path clip-path="url(#p02fbf48837)" d="M 82.01 280.758 
L 844.56 280.758 
" style="fill:none;stroke:#b0b0b0;stroke-dasharray:2.96,1.28;stroke-dashoffset:0;stroke-width:0.8;"/>
     </g>
     <g id="line2d_96">
      <g>
       <use style="stroke:#000000;stroke-width:0.6;" x="82.01" xlink:href="#m22819da167" y="280.758"/>
      </g>
     </g>
    </g>
    <g id="ytick_26">
     <g id="line2d_97">
      <path clip-path="url(#p02fbf48837)" d="M 82.01 256.522 
L 844.56 256.522 
" style="fill:none;stroke:#b0b0b0;stroke-dasharray:2.96,1.28;stroke-dashoffset:0;stroke-width:0.8;"/>
     </g>
     <g id="line2d_98">
      <g>
       <use style="stroke:#000000;stroke-width:0.6;" x="82.01" xlink:href="#m22819da167" y="256.522"/>
      </g>
     </g>
    </g>
    <g id="ytick_27">
     <g id="line2d_99">
      <path clip-path="url(#p02fbf48837)" d="M 82.01 244.404 
L 844.56 244.404 
" style="fill:none;stroke:#b0b0b0;stroke-dasharray:2.96,1.28;stroke-dashoffset:0;stroke-width:0.8;"/>
     </g>
     <g id="line2d_100">
      <g>
       <use style="stroke:#000000;stroke-width:0.6;" x="82.01" xlink:href="#m22819da167" y="244.404"/>
      </g>
     </g>
    </g>
    <g id="ytick_28">
     <g id="line2d_101">
      <path clip-path="url(#p02fbf48837)" d="M 82.01 232.286 
L 844.56 232.286 
" style="fill:none;stroke:#b0b0b0;stroke-dasharray:2.96,1.28;stroke-dashoffset:0;stroke-width:0.8;"/>
     </g>
     <g id="line2d_102">
      <g>
       <use style="stroke:#000000;stroke-width:0.6;" x="82.01" xlink:href="#m22819da167" y="232.286"/>
      </g>
     </g>
    </g>
    <g id="ytick_29">
     <g id="line2d_103">
      <path clip-path="url(#p02fbf48837)" d="M 82.01 220.168 
L 844.56 220.168 
" style="fill:none;stroke:#b0b0b0;stroke-dasharray:2.96,1.28;stroke-dashoffset:0;stroke-width:0.8;"/>
     </g>
     <g id="line2d_104">
      <g>
       <use style="stroke:#000000;stroke-width:0.6;" x="82.01" xlink:href="#m22819da167" y="220.168"/>
      </g>
     </g>
    </g>
    <g id="ytick_30">
     <g id="line2d_105">
      <path clip-path="url(#p02fbf48837)" d="M 82.01 195.932 
L 844.56 195.932 
" style="fill:none;stroke:#b0b0b0;stroke-dasharray:2.96,1.28;stroke-dashoffset:0;stroke-width:0.8;"/>
     </g>
     <g id="line2d_106">
      <g>
       <use style="stroke:#000000;stroke-width:0.6;" x="82.01" xlink:href="#m22819da167" y="195.932"/>
      </g>
     </g>
    </g>
    <g id="ytick_31">
     <g id="line2d_107">
      <path clip-path="url(#p02fbf48837)" d="M 82.01 183.814 
L 844.56 183.814 
" style="fill:none;stroke:#b0b0b0;stroke-dasharray:2.96,1.28;stroke-dashoffset:0;stroke-width:0.8;"/>
     </g>
     <g id="line2d_108">
      <g>
       <use style="stroke:#000000;stroke-width:0.6;" x="82.01" xlink:href="#m22819da167" y="183.814"/>
      </g>
     </g>
    </g>
    <g id="ytick_32">
     <g id="line2d_109">
      <path clip-path="url(#p02fbf48837)" d="M 82.01 171.696 
L 844.56 171.696 
" style="fill:none;stroke:#b0b0b0;stroke-dasharray:2.96,1.28;stroke-dashoffset:0;stroke-width:0.8;"/>
     </g>
     <g id="line2d_110">
      <g>
       <use style="stroke:#000000;stroke-width:0.6;" x="82.01" xlink:href="#m22819da167" y="171.696"/>
      </g>
     </g>
    </g>
    <g id="ytick_33">
     <g id="line2d_111">
      <path clip-path="url(#p02fbf48837)" d="M 82.01 159.578 
L 844.56 159.578 
" style="fill:none;stroke:#b0b0b0;stroke-dasharray:2.96,1.28;stroke-dashoffset:0;stroke-width:0.8;"/>
     </g>
     <g id="line2d_112">
      <g>
       <use style="stroke:#000000;stroke-width:0.6;" x="82.01" xlink:href="#m22819da167" y="159.578"/>
      </g>
     </g>
    </g>
    <g id="ytick_34">
     <g id="line2d_113">
      <path clip-path="url(#p02fbf48837)" d="M 82.01 135.342 
L 844.56 135.342 
" style="fill:none;stroke:#b0b0b0;stroke-dasharray:2.96,1.28;stroke-dashoffset:0;stroke-width:0.8;"/>
     </g>
     <g id="line2d_114">
      <g>
       <use style="stroke:#000000;stroke-width:0.6;" x="82.01" xlink:href="#m22819da167" y="135.342"/>
      </g>
     </g>
    </g>
    <g id="ytick_35">
     <g id="line2d_115">
      <path clip-path="url(#p02fbf48837)" d="M 82.01 123.224 
L 844.56 123.224 
" style="fill:none;stroke:#b0b0b0;stroke-dasharray:2.96,1.28;stroke-dashoffset:0;stroke-width:0.8;"/>
     </g>
     <g id="line2d_116">
      <g>
       <use style="stroke:#000000;stroke-width:0.6;" x="82.01" xlink:href="#m22819da167" y="123.224"/>
      </g>
     </g>
    </g>
    <g id="ytick_36">
     <g id="line2d_117">
      <path clip-path="url(#p02fbf48837)" d="M 82.01 111.106 
L 844.56 111.106 
" style="fill:none;stroke:#b0b0b0;stroke-dasharray:2.96,1.28;stroke-dashoffset:0;stroke-width:0.8;"/>
     </g>
     <g id="line2d_118">
      <g>
       <use style="stroke:#000000;stroke-width:0.6;" x="82.01" xlink:href="#m22819da167" y="111.106"/>
      </g>
     </g>
    </g>
    <g id="ytick_37">
     <g id="line2d_119">
      <path clip-path="url(#p02fbf48837)" d="M 82.01 98.988 
L 844.56 98.988 
" style="fill:none;stroke:#b0b0b0;stroke-dasharray:2.96,1.28;stroke-dashoffset:0;stroke-width:0.8;"/>
     </g>
     <g id="line2d_120">
      <g>
       <use style="stroke:#000000;stroke-width:0.6;" x="82.01" xlink:href="#m22819da167" y="98.988"/>
      </g>
     </g>
    </g>
    <g id="ytick_38">
     <g id="line2d_121">
      <path clip-path="url(#p02fbf48837)" d="M 82.01 74.752 
L 844.56 74.752 
" style="fill:none;stroke:#b0b0b0;stroke-dasharray:2.96,1.28;stroke-dashoffset:0;stroke-width:0.8;"/>
     </g>
     <g id="line2d_122">
      <g>
       <use style="stroke:#000000;stroke-width:0.6;" x="82.01" xlink:href="#m22819da167" y="74.752"/>
      </g>
     </g>
    </g>
    <g id="ytick_39">
     <g id="line2d_123">
      <path clip-path="url(#p02fbf48837)" d="M 82.01 62.634 
L 844.56 62.634 
" style="fill:none;stroke:#b0b0b0;stroke-dasharray:2.96,1.28;stroke-dashoffset:0;stroke-width:0.8;"/>
     </g>
     <g id="line2d_124">
      <g>
       <use style="stroke:#000000;stroke-width:0.6;" x="82.01" xlink:href="#m22819da167" y="62.634"/>
      </g>
     </g>
    </g>
    <g id="ytick_40">
     <g id="line2d_125">
      <path clip-path="url(#p02fbf48837)" d="M 82.01 50.516 
L 844.56 50.516 
" style="fill:none;stroke:#b0b0b0;stroke-dasharray:2.96,1.28;stroke-dashoffset:0;stroke-width:0.8;"/>
     </g>
     <g id="line2d_126">
      <g>
       <use style="stroke:#000000;stroke-width:0.6;" x="82.01" xlink:href="#m22819da167" y="50.516"/>
      </g>
     </g>
    </g>
    <g id="ytick_41">
     <g id="line2d_127">
      <path clip-path="url(#p02fbf48837)" d="M 82.01 38.398 
L 844.56 38.398 
" style="fill:none;stroke:#b0b0b0;stroke-dasharray:2.96,1.28;stroke-dashoffset:0;stroke-width:0.8;"/>
     </g>
     <g id="line2d_128">
      <g>
       <use style="stroke:#000000;stroke-width:0.6;" x="82.01" xlink:href="#m22819da167" y="38.398"/>
      </g>
     </g>
    </g>
    <g id="text_17">
     <!-- Width, MeV -->
     <g transform="translate(32.909063 319.9625)rotate(-90)scale(0.18 -0.18)">
      <defs>
       <path d="M 3.328125 72.90625 
L 13.28125 72.90625 
L 28.609375 11.28125 
L 43.890625 72.90625 
L 54.984375 72.90625 
L 70.3125 11.28125 
L 85.59375 72.90625 
L 95.609375 72.90625 
L 77.296875 0 
L 64.890625 0 
L 49.515625 63.28125 
L 33.984375 0 
L 21.578125 0 
z
" id="DejaVuSans-87"/>
       <path d="M 9.421875 54.6875 
L 18.40625 54.6875 
L 18.40625 0 
L 9.421875 0 
z
M 9.421875 75.984375 
L 18.40625 75.984375 
L 18.40625 64.59375 
L 9.421875 64.59375 
z
" id="DejaVuSans-105"/>
       <path d="M 45.40625 46.390625 
L 45.40625 75.984375 
L 54.390625 75.984375 
L 54.390625 0 
L 45.40625 0 
L 45.40625 8.203125 
Q 42.578125 3.328125 38.25 0.953125 
Q 33.9375 -1.421875 27.875 -1.421875 
Q 17.96875 -1.421875 11.734375 6.484375 
Q 5.515625 14.40625 5.515625 27.296875 
Q 5.515625 40.1875 11.734375 48.09375 
Q 17.96875 56 27.875 56 
Q 33.9375 56 38.25 53.625 
Q 42.578125 51.265625 45.40625 46.390625 
z
M 14.796875 27.296875 
Q 14.796875 17.390625 18.875 11.75 
Q 22.953125 6.109375 30.078125 6.109375 
Q 37.203125 6.109375 41.296875 11.75 
Q 45.40625 17.390625 45.40625 27.296875 
Q 45.40625 37.203125 41.296875 42.84375 
Q 37.203125 48.484375 30.078125 48.484375 
Q 22.953125 48.484375 18.875 42.84375 
Q 14.796875 37.203125 14.796875 27.296875 
z
" id="DejaVuSans-100"/>
       <path d="M 18.3125 70.21875 
L 18.3125 54.6875 
L 36.8125 54.6875 
L 36.8125 47.703125 
L 18.3125 47.703125 
L 18.3125 18.015625 
Q 18.3125 11.328125 20.140625 9.421875 
Q 21.96875 7.515625 27.59375 7.515625 
L 36.8125 7.515625 
L 36.8125 0 
L 27.59375 0 
Q 17.1875 0 13.234375 3.875 
Q 9.28125 7.765625 9.28125 18.015625 
L 9.28125 47.703125 
L 2.6875 47.703125 
L 2.6875 54.6875 
L 9.28125 54.6875 
L 9.28125 70.21875 
z
" id="DejaVuSans-116"/>
       <path d="M 54.890625 33.015625 
L 54.890625 0 
L 45.90625 0 
L 45.90625 32.71875 
Q 45.90625 40.484375 42.875 44.328125 
Q 39.84375 48.1875 33.796875 48.1875 
Q 26.515625 48.1875 22.3125 43.546875 
Q 18.109375 38.921875 18.109375 30.90625 
L 18.109375 0 
L 9.078125 0 
L 9.078125 75.984375 
L 18.109375 75.984375 
L 18.109375 46.1875 
Q 21.34375 51.125 25.703125 53.5625 
Q 30.078125 56 35.796875 56 
Q 45.21875 56 50.046875 50.171875 
Q 54.890625 44.34375 54.890625 33.015625 
z
" id="DejaVuSans-104"/>
      </defs>
      <use xlink:href="#DejaVuSans-87"/>
      <use x="96.626953" xlink:href="#DejaVuSans-105"/>
      <use x="124.410156" xlink:href="#DejaVuSans-100"/>
      <use x="187.886719" xlink:href="#DejaVuSans-116"/>
      <use x="227.095703" xlink:href="#DejaVuSans-104"/>
      <use x="290.474609" xlink:href="#DejaVuSans-44"/>
      <use x="322.261719" xlink:href="#DejaVuSans-32"/>
      <use x="354.048828" xlink:href="#DejaVuSans-77"/>
      <use x="440.328125" xlink:href="#DejaVuSans-101"/>
      <use x="501.851562" xlink:href="#DejaVuSans-86"/>
     </g>
    </g>
   </g>
   <g id="LineCollection_1">
    <path clip-path="url(#p02fbf48837)" d="M 237.119376 473.58355 
L 238.009374 473.58355 
" style="fill:none;stroke:#875692;stroke-width:1.5;"/>
   </g>
   <g id="LineCollection_2">
    <path clip-path="url(#p02fbf48837)" d="M 237.564375 476.383668 
L 237.564375 470.783433 
" style="fill:none;stroke:#875692;stroke-width:1.5;"/>
   </g>
   <g id="LineCollection_3">
    <path clip-path="url(#p02fbf48837)" d="M 264.031361 454.703247 
L 265.075534 454.703247 
" style="fill:none;stroke:#f38400;stroke-width:1.5;"/>
   </g>
   <g id="LineCollection_4">
    <path clip-path="url(#p02fbf48837)" d="M 264.553448 456.158362 
L 264.553448 453.248132 
" style="fill:none;stroke:#f38400;stroke-width:1.5;"/>
   </g>
   <g id="LineCollection_5">
    <path clip-path="url(#p02fbf48837)" d="M 237.213968 483.169488 
L 238.98938 483.169488 
" style="fill:none;stroke:#a1caf1;stroke-width:1.5;"/>
   </g>
   <g id="LineCollection_6">
    <path clip-path="url(#p02fbf48837)" d="M 238.101674 486.89583 
L 238.101674 479.443146 
" style="fill:none;stroke:#a1caf1;stroke-width:1.5;"/>
   </g>
   <g id="LineCollection_7">
    <path clip-path="url(#p02fbf48837)" d="M 267.566818 453.727948 
L 268.45023 453.727948 
" style="fill:none;stroke:#be0032;stroke-width:1.5;"/>
   </g>
   <g id="LineCollection_8">
    <path clip-path="url(#p02fbf48837)" d="M 268.008524 455.578325 
L 268.008524 451.877571 
" style="fill:none;stroke:#be0032;stroke-width:1.5;"/>
   </g>
   <g id="LineCollection_9">
    <path clip-path="url(#p02fbf48837)" d="M 138.408362 178.880924 
L 164.079982 178.880924 
" style="fill:none;stroke:#c2b280;stroke-width:1.5;"/>
   </g>
   <g id="LineCollection_10">
    <path clip-path="url(#p02fbf48837)" d="M 151.244172 226.960122 
L 151.244172 130.801727 
" style="fill:none;stroke:#c2b280;stroke-width:1.5;"/>
   </g>
   <g id="LineCollection_11">
    <path clip-path="url(#p02fbf48837)" d="M 180.7505 243.733906 
L 190.525018 243.733906 
" style="fill:none;stroke:#848482;stroke-width:1.5;"/>
   </g>
   <g id="LineCollection_12">
    <path clip-path="url(#p02fbf48837)" d="M 185.637759 264.945503 
L 185.637759 222.522309 
" style="fill:none;stroke:#848482;stroke-width:1.5;"/>
   </g>
   <g id="LineCollection_13">
    <path clip-path="url(#p02fbf48837)" d="M 222.638384 132.134715 
L 235.358819 132.134715 
" style="fill:none;stroke:#008856;stroke-width:1.5;"/>
   </g>
   <g id="LineCollection_14">
    <path clip-path="url(#p02fbf48837)" d="M 228.998602 166.897564 
L 228.998602 97.371865 
" style="fill:none;stroke:#008856;stroke-width:1.5;"/>
   </g>
   <g id="LineCollection_15">
    <path clip-path="url(#p02fbf48837)" d="M 297.409502 269.8518 
L 307.503043 269.8518 
" style="fill:none;stroke:#e68fac;stroke-width:1.5;"/>
   </g>
   <g id="LineCollection_16">
    <path clip-path="url(#p02fbf48837)" d="M 302.456273 291.324951 
L 302.456273 248.378649 
" style="fill:none;stroke:#e68fac;stroke-width:1.5;"/>
   </g>
   <g id="LineCollection_17">
    <path clip-path="url(#p02fbf48837)" d="M 387.693144 300.268584 
L 394.09045 300.268584 
" style="fill:none;stroke:#0067a5;stroke-width:1.5;"/>
   </g>
   <g id="LineCollection_18">
    <path clip-path="url(#p02fbf48837)" d="M 390.891797 314.670504 
L 390.891797 285.866665 
" style="fill:none;stroke:#0067a5;stroke-width:1.5;"/>
   </g>
   <g id="LineCollection_19">
    <path clip-path="url(#p02fbf48837)" d="M 474.611239 415.719203 
L 481.115696 415.719203 
" style="fill:none;stroke:#f99379;stroke-width:1.5;"/>
   </g>
   <g id="LineCollection_20">
    <path clip-path="url(#p02fbf48837)" d="M 477.863468 432.379228 
L 477.863468 399.059178 
" style="fill:none;stroke:#f99379;stroke-width:1.5;"/>
   </g>
   <g id="LineCollection_21">
    <path clip-path="url(#p02fbf48837)" d="M 458.698766 387.3964 
L 469.257689 387.3964 
" style="fill:none;stroke:#604e97;stroke-width:1.5;"/>
   </g>
   <g id="LineCollection_22">
    <path clip-path="url(#p02fbf48837)" d="M 463.978227 419.731257 
L 463.978227 355.061543 
" style="fill:none;stroke:#604e97;stroke-width:1.5;"/>
   </g>
   <g id="LineCollection_23">
    <path clip-path="url(#p02fbf48837)" d="M 745.47109 285.6052 
L 824.41382 285.6052 
" style="fill:none;stroke:#f6a600;stroke-width:1.5;"/>
   </g>
   <g id="LineCollection_24">
    <path clip-path="url(#p02fbf48837)" d="M 784.942455 384.260904 
L 784.942455 186.949496 
" style="fill:none;stroke:#f6a600;stroke-width:1.5;"/>
   </g>
   <g id="LineCollection_25">
    <path clip-path="url(#p02fbf48837)" d="M 469.571384 296.5114 
L 499.978706 296.5114 
" style="fill:none;stroke:#b3446c;stroke-width:1.5;"/>
   </g>
   <g id="LineCollection_26">
    <path clip-path="url(#p02fbf48837)" d="M 484.775045 343.019899 
L 484.775045 250.002901 
" style="fill:none;stroke:#b3446c;stroke-width:1.5;"/>
   </g>
   <g id="LineCollection_27">
    <path clip-path="url(#p02fbf48837)" style="fill:none;stroke:#222222;stroke-width:1.5;"/>
   </g>
   <g id="LineCollection_28">
    <path clip-path="url(#p02fbf48837)" style="fill:none;stroke:#222222;stroke-width:1.5;"/>
   </g>
   <g id="LineCollection_29">
    <path clip-path="url(#p02fbf48837)" style="fill:none;stroke:#f3c300;stroke-width:1.5;"/>
   </g>
   <g id="LineCollection_30">
    <path clip-path="url(#p02fbf48837)" style="fill:none;stroke:#f3c300;stroke-width:1.5;"/>
   </g>
   <g id="LineCollection_31">
    <path clip-path="url(#p02fbf48837)" d="M 234.376566 470.326191 
L 235.051578 470.326191 
" style="fill:none;stroke:#875692;stroke-width:1.5;"/>
   </g>
   <g id="LineCollection_32">
    <path clip-path="url(#p02fbf48837)" d="M 234.714072 471.279329 
L 234.714072 469.373054 
" style="fill:none;stroke:#875692;stroke-width:1.5;"/>
   </g>
   <g id="LineCollection_33">
    <path clip-path="url(#p02fbf48837)" d="M 262.47538 453.058376 
L 262.666105 453.058376 
" style="fill:none;stroke:#f38400;stroke-width:1.5;"/>
   </g>
   <g id="LineCollection_34">
    <path clip-path="url(#p02fbf48837)" d="M 262.570742 453.899954 
L 262.570742 452.216798 
" style="fill:none;stroke:#f38400;stroke-width:1.5;"/>
   </g>
   <g id="LineCollection_35">
    <path clip-path="url(#p02fbf48837)" d="M 237.340868 475.077929 
L 241.066154 475.077929 
" style="fill:none;stroke:#a1caf1;stroke-width:1.5;"/>
   </g>
   <g id="LineCollection_36">
    <path clip-path="url(#p02fbf48837)" d="M 239.203511 485.021095 
L 239.203511 465.134762 
" style="fill:none;stroke:#a1caf1;stroke-width:1.5;"/>
   </g>
   <g id="LineCollection_37">
    <path clip-path="url(#p02fbf48837)" d="M 264.176705 455.559247 
L 264.980059 455.559247 
" style="fill:none;stroke:#be0032;stroke-width:1.5;"/>
   </g>
   <g id="LineCollection_38">
    <path clip-path="url(#p02fbf48837)" d="M 264.578382 458.133122 
L 264.578382 452.985371 
" style="fill:none;stroke:#be0032;stroke-width:1.5;"/>
   </g>
   <g id="LineCollection_39">
    <path clip-path="url(#p02fbf48837)" d="M 330.845767 346.904643 
L 337.870174 346.904643 
" style="fill:none;stroke:#e68fac;stroke-width:1.5;"/>
   </g>
   <g id="LineCollection_40">
    <path clip-path="url(#p02fbf48837)" d="M 334.357971 367.084695 
L 334.357971 326.724591 
" style="fill:none;stroke:#e68fac;stroke-width:1.5;"/>
   </g>
   <g id="LineCollection_41">
    <path clip-path="url(#p02fbf48837)" d="M 372.59952 384.399596 
L 376.535513 384.399596 
" style="fill:none;stroke:#0067a5;stroke-width:1.5;"/>
   </g>
   <g id="LineCollection_42">
    <path clip-path="url(#p02fbf48837)" d="M 374.567517 399.494662 
L 374.567517 369.304529 
" style="fill:none;stroke:#0067a5;stroke-width:1.5;"/>
   </g>
   <g id="LineCollection_43">
    <path clip-path="url(#p02fbf48837)" d="M 469.56398 432.931396 
L 471.96942 432.931396 
" style="fill:none;stroke:#f99379;stroke-width:1.5;"/>
   </g>
   <g id="LineCollection_44">
    <path clip-path="url(#p02fbf48837)" d="M 470.7667 438.850507 
L 470.7667 427.012286 
" style="fill:none;stroke:#f99379;stroke-width:1.5;"/>
   </g>
   <g id="LineCollection_45">
    <path clip-path="url(#p02fbf48837)" d="M 446.138621 422.29624 
L 462.40747 422.29624 
" style="fill:none;stroke:#604e97;stroke-width:1.5;"/>
   </g>
   <g id="LineCollection_46">
    <path clip-path="url(#p02fbf48837)" d="M 454.273045 456.668665 
L 454.273045 387.923815 
" style="fill:none;stroke:#604e97;stroke-width:1.5;"/>
   </g>
   <g id="LineCollection_47">
    <path clip-path="url(#p02fbf48837)" d="M 635.296408 371.282854 
L 640.33517 371.282854 
" style="fill:none;stroke:#f6a600;stroke-width:1.5;"/>
   </g>
   <g id="LineCollection_48">
    <path clip-path="url(#p02fbf48837)" d="M 637.815789 384.780933 
L 637.815789 357.784775 
" style="fill:none;stroke:#f6a600;stroke-width:1.5;"/>
   </g>
   <g id="line2d_129">
    <defs>
     <path d="M 0 5 
C 1.326016 5 2.597899 4.473168 3.535534 3.535534 
C 4.473168 2.597899 5 1.326016 5 0 
C 5 -1.326016 4.473168 -2.597899 3.535534 -3.535534 
C 2.597899 -4.473168 1.326016 -5 0 -5 
C -1.326016 -5 -2.597899 -4.473168 -3.535534 -3.535534 
C -4.473168 -2.597899 -5 -1.326016 -5 0 
C -5 1.326016 -4.473168 2.597899 -3.535534 3.535534 
C -2.597899 4.473168 -1.326016 5 0 5 
z
" id="ma937a3e275" style="stroke:#222222;"/>
    </defs>
    <g clip-path="url(#p02fbf48837)"/>
   </g>
   <g id="line2d_130">
    <defs>
     <path d="M 0 5 
C 1.326016 5 2.597899 4.473168 3.535534 3.535534 
C 4.473168 2.597899 5 1.326016 5 0 
C 5 -1.326016 4.473168 -2.597899 3.535534 -3.535534 
C 2.597899 -4.473168 1.326016 -5 0 -5 
C -1.326016 -5 -2.597899 -4.473168 -3.535534 -3.535534 
C -4.473168 -2.597899 -5 -1.326016 -5 0 
C -5 1.326016 -4.473168 2.597899 -3.535534 3.535534 
C -2.597899 4.473168 -1.326016 5 0 5 
z
" id="m567c01243a" style="stroke:#f3c300;"/>
    </defs>
    <g clip-path="url(#p02fbf48837)"/>
   </g>
   <g id="line2d_131">
    <defs>
     <path d="M 0 5 
C 1.326016 5 2.597899 4.473168 3.535534 3.535534 
C 4.473168 2.597899 5 1.326016 5 0 
C 5 -1.326016 4.473168 -2.597899 3.535534 -3.535534 
C 2.597899 -4.473168 1.326016 -5 0 -5 
C -1.326016 -5 -2.597899 -4.473168 -3.535534 -3.535534 
C -4.473168 -2.597899 -5 -1.326016 -5 0 
C -5 1.326016 -4.473168 2.597899 -3.535534 3.535534 
C -2.597899 4.473168 -1.326016 5 0 5 
z
" id="m2c26da1fbc" style="stroke:#875692;"/>
    </defs>
    <g clip-path="url(#p02fbf48837)"/>
   </g>
   <g id="line2d_132">
    <defs>
     <path d="M 0 5 
C 1.326016 5 2.597899 4.473168 3.535534 3.535534 
C 4.473168 2.597899 5 1.326016 5 0 
C 5 -1.326016 4.473168 -2.597899 3.535534 -3.535534 
C 2.597899 -4.473168 1.326016 -5 0 -5 
C -1.326016 -5 -2.597899 -4.473168 -3.535534 -3.535534 
C -4.473168 -2.597899 -5 -1.326016 -5 0 
C -5 1.326016 -4.473168 2.597899 -3.535534 3.535534 
C -2.597899 4.473168 -1.326016 5 0 5 
z
" id="m320aeae986" style="stroke:#f38400;"/>
    </defs>
    <g clip-path="url(#p02fbf48837)"/>
   </g>
   <g id="line2d_133">
    <defs>
     <path d="M 0 5 
C 1.326016 5 2.597899 4.473168 3.535534 3.535534 
C 4.473168 2.597899 5 1.326016 5 0 
C 5 -1.326016 4.473168 -2.597899 3.535534 -3.535534 
C 2.597899 -4.473168 1.326016 -5 0 -5 
C -1.326016 -5 -2.597899 -4.473168 -3.535534 -3.535534 
C -4.473168 -2.597899 -5 -1.326016 -5 0 
C -5 1.326016 -4.473168 2.597899 -3.535534 3.535534 
C -2.597899 4.473168 -1.326016 5 0 5 
z
" id="mc42f2517e6" style="stroke:#a1caf1;"/>
    </defs>
    <g clip-path="url(#p02fbf48837)"/>
   </g>
   <g id="line2d_134">
    <defs>
     <path d="M 0 5 
C 1.326016 5 2.597899 4.473168 3.535534 3.535534 
C 4.473168 2.597899 5 1.326016 5 0 
C 5 -1.326016 4.473168 -2.597899 3.535534 -3.535534 
C 2.597899 -4.473168 1.326016 -5 0 -5 
C -1.326016 -5 -2.597899 -4.473168 -3.535534 -3.535534 
C -4.473168 -2.597899 -5 -1.326016 -5 0 
C -5 1.326016 -4.473168 2.597899 -3.535534 3.535534 
C -2.597899 4.473168 -1.326016 5 0 5 
z
" id="m36db941445" style="stroke:#be0032;"/>
    </defs>
    <g clip-path="url(#p02fbf48837)"/>
   </g>
   <g id="line2d_135">
    <defs>
     <path d="M 0 5 
C 1.326016 5 2.597899 4.473168 3.535534 3.535534 
C 4.473168 2.597899 5 1.326016 5 0 
C 5 -1.326016 4.473168 -2.597899 3.535534 -3.535534 
C 2.597899 -4.473168 1.326016 -5 0 -5 
C -1.326016 -5 -2.597899 -4.473168 -3.535534 -3.535534 
C -4.473168 -2.597899 -5 -1.326016 -5 0 
C -5 1.326016 -4.473168 2.597899 -3.535534 3.535534 
C -2.597899 4.473168 -1.326016 5 0 5 
z
" id="m0c7b3860f5" style="stroke:#c2b280;"/>
    </defs>
    <g clip-path="url(#p02fbf48837)"/>
   </g>
   <g id="line2d_136">
    <defs>
     <path d="M 0 5 
C 1.326016 5 2.597899 4.473168 3.535534 3.535534 
C 4.473168 2.597899 5 1.326016 5 0 
C 5 -1.326016 4.473168 -2.597899 3.535534 -3.535534 
C 2.597899 -4.473168 1.326016 -5 0 -5 
C -1.326016 -5 -2.597899 -4.473168 -3.535534 -3.535534 
C -4.473168 -2.597899 -5 -1.326016 -5 0 
C -5 1.326016 -4.473168 2.597899 -3.535534 3.535534 
C -2.597899 4.473168 -1.326016 5 0 5 
z
" id="m3b019da1bf" style="stroke:#848482;"/>
    </defs>
    <g clip-path="url(#p02fbf48837)"/>
   </g>
   <g id="line2d_137">
    <defs>
     <path d="M 0 5 
C 1.326016 5 2.597899 4.473168 3.535534 3.535534 
C 4.473168 2.597899 5 1.326016 5 0 
C 5 -1.326016 4.473168 -2.597899 3.535534 -3.535534 
C 2.597899 -4.473168 1.326016 -5 0 -5 
C -1.326016 -5 -2.597899 -4.473168 -3.535534 -3.535534 
C -4.473168 -2.597899 -5 -1.326016 -5 0 
C -5 1.326016 -4.473168 2.597899 -3.535534 3.535534 
C -2.597899 4.473168 -1.326016 5 0 5 
z
" id="ma41662ec81" style="stroke:#008856;"/>
    </defs>
    <g clip-path="url(#p02fbf48837)"/>
   </g>
   <g id="line2d_138">
    <defs>
     <path d="M 0 5 
C 1.326016 5 2.597899 4.473168 3.535534 3.535534 
C 4.473168 2.597899 5 1.326016 5 0 
C 5 -1.326016 4.473168 -2.597899 3.535534 -3.535534 
C 2.597899 -4.473168 1.326016 -5 0 -5 
C -1.326016 -5 -2.597899 -4.473168 -3.535534 -3.535534 
C -4.473168 -2.597899 -5 -1.326016 -5 0 
C -5 1.326016 -4.473168 2.597899 -3.535534 3.535534 
C -2.597899 4.473168 -1.326016 5 0 5 
z
" id="m671d1422b7" style="stroke:#e68fac;"/>
    </defs>
    <g clip-path="url(#p02fbf48837)"/>
   </g>
   <g id="line2d_139">
    <defs>
     <path d="M 0 5 
C 1.326016 5 2.597899 4.473168 3.535534 3.535534 
C 4.473168 2.597899 5 1.326016 5 0 
C 5 -1.326016 4.473168 -2.597899 3.535534 -3.535534 
C 2.597899 -4.473168 1.326016 -5 0 -5 
C -1.326016 -5 -2.597899 -4.473168 -3.535534 -3.535534 
C -4.473168 -2.597899 -5 -1.326016 -5 0 
C -5 1.326016 -4.473168 2.597899 -3.535534 3.535534 
C -2.597899 4.473168 -1.326016 5 0 5 
z
" id="m7ce2de2a1c" style="stroke:#0067a5;"/>
    </defs>
    <g clip-path="url(#p02fbf48837)"/>
   </g>
   <g id="line2d_140">
    <defs>
     <path d="M 0 5 
C 1.326016 5 2.597899 4.473168 3.535534 3.535534 
C 4.473168 2.597899 5 1.326016 5 0 
C 5 -1.326016 4.473168 -2.597899 3.535534 -3.535534 
C 2.597899 -4.473168 1.326016 -5 0 -5 
C -1.326016 -5 -2.597899 -4.473168 -3.535534 -3.535534 
C -4.473168 -2.597899 -5 -1.326016 -5 0 
C -5 1.326016 -4.473168 2.597899 -3.535534 3.535534 
C -2.597899 4.473168 -1.326016 5 0 5 
z
" id="m1dd327defd" style="stroke:#f99379;"/>
    </defs>
    <g clip-path="url(#p02fbf48837)"/>
   </g>
   <g id="line2d_141">
    <defs>
     <path d="M 0 5 
C 1.326016 5 2.597899 4.473168 3.535534 3.535534 
C 4.473168 2.597899 5 1.326016 5 0 
C 5 -1.326016 4.473168 -2.597899 3.535534 -3.535534 
C 2.597899 -4.473168 1.326016 -5 0 -5 
C -1.326016 -5 -2.597899 -4.473168 -3.535534 -3.535534 
C -4.473168 -2.597899 -5 -1.326016 -5 0 
C -5 1.326016 -4.473168 2.597899 -3.535534 3.535534 
C -2.597899 4.473168 -1.326016 5 0 5 
z
" id="ma1700699fa" style="stroke:#604e97;"/>
    </defs>
    <g clip-path="url(#p02fbf48837)"/>
   </g>
   <g id="line2d_142">
    <defs>
     <path d="M 0 5 
C 1.326016 5 2.597899 4.473168 3.535534 3.535534 
C 4.473168 2.597899 5 1.326016 5 0 
C 5 -1.326016 4.473168 -2.597899 3.535534 -3.535534 
C 2.597899 -4.473168 1.326016 -5 0 -5 
C -1.326016 -5 -2.597899 -4.473168 -3.535534 -3.535534 
C -4.473168 -2.597899 -5 -1.326016 -5 0 
C -5 1.326016 -4.473168 2.597899 -3.535534 3.535534 
C -2.597899 4.473168 -1.326016 5 0 5 
z
" id="me2ee8ec3c4" style="stroke:#f6a600;"/>
    </defs>
    <g clip-path="url(#p02fbf48837)"/>
   </g>
   <g id="line2d_143">
    <defs>
     <path d="M 0 5 
C 1.326016 5 2.597899 4.473168 3.535534 3.535534 
C 4.473168 2.597899 5 1.326016 5 0 
C 5 -1.326016 4.473168 -2.597899 3.535534 -3.535534 
C 2.597899 -4.473168 1.326016 -5 0 -5 
C -1.326016 -5 -2.597899 -4.473168 -3.535534 -3.535534 
C -4.473168 -2.597899 -5 -1.326016 -5 0 
C -5 1.326016 -4.473168 2.597899 -3.535534 3.535534 
C -2.597899 4.473168 -1.326016 5 0 5 
z
" id="mbcefe1262c" style="stroke:#b3446c;"/>
    </defs>
    <g clip-path="url(#p02fbf48837)"/>
   </g>
   <g id="line2d_144">
    <defs>
     <path d="M 0 5 
C 1.326016 5 2.597899 4.473168 3.535534 3.535534 
C 4.473168 2.597899 5 1.326016 5 0 
C 5 -1.326016 4.473168 -2.597899 3.535534 -3.535534 
C 2.597899 -4.473168 1.326016 -5 0 -5 
C -1.326016 -5 -2.597899 -4.473168 -3.535534 -3.535534 
C -4.473168 -2.597899 -5 -1.326016 -5 0 
C -5 1.326016 -4.473168 2.597899 -3.535534 3.535534 
C -2.597899 4.473168 -1.326016 5 0 5 
z
" id="m5311a05a0c" style="stroke:#000000;"/>
    </defs>
    <g clip-path="url(#p02fbf48837)"/>
   </g>
   <g id="line2d_145">
    <defs>
     <path d="M -0 7.071068 
L 4.242641 0 
L -0 -7.071068 
L -4.242641 -0 
z
" id="m2afc656550" style="stroke:#000000;stroke-linejoin:miter;"/>
    </defs>
    <g clip-path="url(#p02fbf48837)"/>
   </g>
   <g id="line2d_146">
    <defs>
     <path d="M -0 5.656854 
L 3.394113 0 
L 0 -5.656854 
L -3.394113 -0 
z
" id="m167a954655" style="stroke:#875692;stroke-linejoin:miter;"/>
    </defs>
    <g clip-path="url(#p02fbf48837)">
     <use style="fill-opacity:0;stroke:#875692;stroke-linejoin:miter;" x="237.564375" xlink:href="#m167a954655" y="473.58355"/>
    </g>
   </g>
   <g id="line2d_147">
    <defs>
     <path d="M -0 5.656854 
L 3.394113 0 
L 0 -5.656854 
L -3.394113 -0 
z
" id="ma86cc37be9" style="stroke:#f38400;stroke-linejoin:miter;"/>
    </defs>
    <g clip-path="url(#p02fbf48837)">
     <use style="fill-opacity:0;stroke:#f38400;stroke-linejoin:miter;" x="264.553448" xlink:href="#ma86cc37be9" y="454.703247"/>
    </g>
   </g>
   <g id="line2d_148">
    <defs>
     <path d="M -0 5.656854 
L 3.394113 0 
L 0 -5.656854 
L -3.394113 -0 
z
" id="ma14d9ab754" style="stroke:#a1caf1;stroke-linejoin:miter;"/>
    </defs>
    <g clip-path="url(#p02fbf48837)">
     <use style="fill-opacity:0;stroke:#a1caf1;stroke-linejoin:miter;" x="238.101674" xlink:href="#ma14d9ab754" y="483.169488"/>
    </g>
   </g>
   <g id="line2d_149">
    <defs>
     <path d="M -0 5.656854 
L 3.394113 0 
L 0 -5.656854 
L -3.394113 -0 
z
" id="m1ede012d09" style="stroke:#be0032;stroke-linejoin:miter;"/>
    </defs>
    <g clip-path="url(#p02fbf48837)">
     <use style="fill-opacity:0;stroke:#be0032;stroke-linejoin:miter;" x="268.008524" xlink:href="#m1ede012d09" y="453.727948"/>
    </g>
   </g>
   <g id="line2d_150">
    <defs>
     <path d="M -0 5.656854 
L 3.394113 0 
L 0 -5.656854 
L -3.394113 -0 
z
" id="m235168ae8b" style="stroke:#c2b280;stroke-linejoin:miter;"/>
    </defs>
    <g clip-path="url(#p02fbf48837)">
     <use style="fill-opacity:0;stroke:#c2b280;stroke-linejoin:miter;" x="151.244172" xlink:href="#m235168ae8b" y="178.880924"/>
    </g>
   </g>
   <g id="line2d_151">
    <defs>
     <path d="M -0 5.656854 
L 3.394113 0 
L 0 -5.656854 
L -3.394113 -0 
z
" id="m5f0b17d7b5" style="stroke:#848482;stroke-linejoin:miter;"/>
    </defs>
    <g clip-path="url(#p02fbf48837)">
     <use style="fill-opacity:0;stroke:#848482;stroke-linejoin:miter;" x="185.637759" xlink:href="#m5f0b17d7b5" y="243.733906"/>
    </g>
   </g>
   <g id="line2d_152">
    <defs>
     <path d="M -0 5.656854 
L 3.394113 0 
L 0 -5.656854 
L -3.394113 -0 
z
" id="m775fefb9ca" style="stroke:#008856;stroke-linejoin:miter;"/>
    </defs>
    <g clip-path="url(#p02fbf48837)">
     <use style="fill-opacity:0;stroke:#008856;stroke-linejoin:miter;" x="228.998602" xlink:href="#m775fefb9ca" y="132.134715"/>
    </g>
   </g>
   <g id="line2d_153">
    <defs>
     <path d="M -0 5.656854 
L 3.394113 0 
L 0 -5.656854 
L -3.394113 -0 
z
" id="m62987f3b4e" style="stroke:#e68fac;stroke-linejoin:miter;"/>
    </defs>
    <g clip-path="url(#p02fbf48837)">
     <use style="fill-opacity:0;stroke:#e68fac;stroke-linejoin:miter;" x="302.456273" xlink:href="#m62987f3b4e" y="269.8518"/>
    </g>
   </g>
   <g id="line2d_154">
    <defs>
     <path d="M -0 5.656854 
L 3.394113 0 
L 0 -5.656854 
L -3.394113 -0 
z
" id="m3580030b65" style="stroke:#0067a5;stroke-linejoin:miter;"/>
    </defs>
    <g clip-path="url(#p02fbf48837)">
     <use style="fill-opacity:0;stroke:#0067a5;stroke-linejoin:miter;" x="390.891797" xlink:href="#m3580030b65" y="300.268584"/>
    </g>
   </g>
   <g id="line2d_155">
    <defs>
     <path d="M -0 5.656854 
L 3.394113 0 
L 0 -5.656854 
L -3.394113 -0 
z
" id="me70c6c25cd" style="stroke:#f99379;stroke-linejoin:miter;"/>
    </defs>
    <g clip-path="url(#p02fbf48837)">
     <use style="fill-opacity:0;stroke:#f99379;stroke-linejoin:miter;" x="477.863468" xlink:href="#me70c6c25cd" y="415.719203"/>
    </g>
   </g>
   <g id="line2d_156">
    <defs>
     <path d="M -0 5.656854 
L 3.394113 0 
L 0 -5.656854 
L -3.394113 -0 
z
" id="m6d4c57a8df" style="stroke:#604e97;stroke-linejoin:miter;"/>
    </defs>
    <g clip-path="url(#p02fbf48837)">
     <use style="fill-opacity:0;stroke:#604e97;stroke-linejoin:miter;" x="463.978227" xlink:href="#m6d4c57a8df" y="387.3964"/>
    </g>
   </g>
   <g id="line2d_157">
    <defs>
     <path d="M -0 5.656854 
L 3.394113 0 
L 0 -5.656854 
L -3.394113 -0 
z
" id="m66b002b1a9" style="stroke:#f6a600;stroke-linejoin:miter;"/>
    </defs>
    <g clip-path="url(#p02fbf48837)">
     <use style="fill-opacity:0;stroke:#f6a600;stroke-linejoin:miter;" x="784.942455" xlink:href="#m66b002b1a9" y="285.6052"/>
    </g>
   </g>
   <g id="line2d_158">
    <defs>
     <path d="M -0 5.656854 
L 3.394113 0 
L 0 -5.656854 
L -3.394113 -0 
z
" id="mbcd0881166" style="stroke:#b3446c;stroke-linejoin:miter;"/>
    </defs>
    <g clip-path="url(#p02fbf48837)">
     <use style="fill-opacity:0;stroke:#b3446c;stroke-linejoin:miter;" x="484.775045" xlink:href="#mbcd0881166" y="296.5114"/>
    </g>
   </g>
   <g id="line2d_159">
    <defs>
     <path d="M 0 4 
C 1.060812 4 2.078319 3.578535 2.828427 2.828427 
C 3.578535 2.078319 4 1.060812 4 0 
C 4 -1.060812 3.578535 -2.078319 2.828427 -2.828427 
C 2.078319 -3.578535 1.060812 -4 0 -4 
C -1.060812 -4 -2.078319 -3.578535 -2.828427 -2.828427 
C -3.578535 -2.078319 -4 -1.060812 -4 0 
C -4 1.060812 -3.578535 2.078319 -2.828427 2.828427 
C -2.078319 3.578535 -1.060812 4 0 4 
z
" id="mc425e11aea" style="stroke:#222222;"/>
    </defs>
    <g clip-path="url(#p02fbf48837)"/>
   </g>
   <g id="line2d_160">
    <defs>
     <path d="M 0 4 
C 1.060812 4 2.078319 3.578535 2.828427 2.828427 
C 3.578535 2.078319 4 1.060812 4 0 
C 4 -1.060812 3.578535 -2.078319 2.828427 -2.828427 
C 2.078319 -3.578535 1.060812 -4 0 -4 
C -1.060812 -4 -2.078319 -3.578535 -2.828427 -2.828427 
C -3.578535 -2.078319 -4 -1.060812 -4 0 
C -4 1.060812 -3.578535 2.078319 -2.828427 2.828427 
C -2.078319 3.578535 -1.060812 4 0 4 
z
" id="mdf46c0a399" style="stroke:#f3c300;"/>
    </defs>
    <g clip-path="url(#p02fbf48837)"/>
   </g>
   <g id="line2d_161">
    <defs>
     <path d="M 0 4 
C 1.060812 4 2.078319 3.578535 2.828427 2.828427 
C 3.578535 2.078319 4 1.060812 4 0 
C 4 -1.060812 3.578535 -2.078319 2.828427 -2.828427 
C 2.078319 -3.578535 1.060812 -4 0 -4 
C -1.060812 -4 -2.078319 -3.578535 -2.828427 -2.828427 
C -3.578535 -2.078319 -4 -1.060812 -4 0 
C -4 1.060812 -3.578535 2.078319 -2.828427 2.828427 
C -2.078319 3.578535 -1.060812 4 0 4 
z
" id="mb1909e6ce5" style="stroke:#875692;"/>
    </defs>
    <g clip-path="url(#p02fbf48837)">
     <use style="fill-opacity:0;stroke:#875692;" x="234.714072" xlink:href="#mb1909e6ce5" y="470.326191"/>
    </g>
   </g>
   <g id="line2d_162">
    <defs>
     <path d="M 0 4 
C 1.060812 4 2.078319 3.578535 2.828427 2.828427 
C 3.578535 2.078319 4 1.060812 4 0 
C 4 -1.060812 3.578535 -2.078319 2.828427 -2.828427 
C 2.078319 -3.578535 1.060812 -4 0 -4 
C -1.060812 -4 -2.078319 -3.578535 -2.828427 -2.828427 
C -3.578535 -2.078319 -4 -1.060812 -4 0 
C -4 1.060812 -3.578535 2.078319 -2.828427 2.828427 
C -2.078319 3.578535 -1.060812 4 0 4 
z
" id="m396819d1a0" style="stroke:#f38400;"/>
    </defs>
    <g clip-path="url(#p02fbf48837)">
     <use style="fill-opacity:0;stroke:#f38400;" x="262.570742" xlink:href="#m396819d1a0" y="453.058376"/>
    </g>
   </g>
   <g id="line2d_163">
    <defs>
     <path d="M 0 4 
C 1.060812 4 2.078319 3.578535 2.828427 2.828427 
C 3.578535 2.078319 4 1.060812 4 0 
C 4 -1.060812 3.578535 -2.078319 2.828427 -2.828427 
C 2.078319 -3.578535 1.060812 -4 0 -4 
C -1.060812 -4 -2.078319 -3.578535 -2.828427 -2.828427 
C -3.578535 -2.078319 -4 -1.060812 -4 0 
C -4 1.060812 -3.578535 2.078319 -2.828427 2.828427 
C -2.078319 3.578535 -1.060812 4 0 4 
z
" id="mb2864b762f" style="stroke:#a1caf1;"/>
    </defs>
    <g clip-path="url(#p02fbf48837)">
     <use style="fill-opacity:0;stroke:#a1caf1;" x="239.203511" xlink:href="#mb2864b762f" y="475.077929"/>
    </g>
   </g>
   <g id="line2d_164">
    <defs>
     <path d="M 0 4 
C 1.060812 4 2.078319 3.578535 2.828427 2.828427 
C 3.578535 2.078319 4 1.060812 4 0 
C 4 -1.060812 3.578535 -2.078319 2.828427 -2.828427 
C 2.078319 -3.578535 1.060812 -4 0 -4 
C -1.060812 -4 -2.078319 -3.578535 -2.828427 -2.828427 
C -3.578535 -2.078319 -4 -1.060812 -4 0 
C -4 1.060812 -3.578535 2.078319 -2.828427 2.828427 
C -2.078319 3.578535 -1.060812 4 0 4 
z
" id="m1bf0133c94" style="stroke:#be0032;"/>
    </defs>
    <g clip-path="url(#p02fbf48837)">
     <use style="fill-opacity:0;stroke:#be0032;" x="264.578382" xlink:href="#m1bf0133c94" y="455.559247"/>
    </g>
   </g>
   <g id="line2d_165">
    <defs>
     <path d="M 0 4 
C 1.060812 4 2.078319 3.578535 2.828427 2.828427 
C 3.578535 2.078319 4 1.060812 4 0 
C 4 -1.060812 3.578535 -2.078319 2.828427 -2.828427 
C 2.078319 -3.578535 1.060812 -4 0 -4 
C -1.060812 -4 -2.078319 -3.578535 -2.828427 -2.828427 
C -3.578535 -2.078319 -4 -1.060812 -4 0 
C -4 1.060812 -3.578535 2.078319 -2.828427 2.828427 
C -2.078319 3.578535 -1.060812 4 0 4 
z
" id="m4b300e6244" style="stroke:#e68fac;"/>
    </defs>
    <g clip-path="url(#p02fbf48837)">
     <use style="fill-opacity:0;stroke:#e68fac;" x="334.357971" xlink:href="#m4b300e6244" y="346.904643"/>
    </g>
   </g>
   <g id="line2d_166">
    <defs>
     <path d="M 0 4 
C 1.060812 4 2.078319 3.578535 2.828427 2.828427 
C 3.578535 2.078319 4 1.060812 4 0 
C 4 -1.060812 3.578535 -2.078319 2.828427 -2.828427 
C 2.078319 -3.578535 1.060812 -4 0 -4 
C -1.060812 -4 -2.078319 -3.578535 -2.828427 -2.828427 
C -3.578535 -2.078319 -4 -1.060812 -4 0 
C -4 1.060812 -3.578535 2.078319 -2.828427 2.828427 
C -2.078319 3.578535 -1.060812 4 0 4 
z
" id="m39e3120418" style="stroke:#0067a5;"/>
    </defs>
    <g clip-path="url(#p02fbf48837)">
     <use style="fill-opacity:0;stroke:#0067a5;" x="374.567517" xlink:href="#m39e3120418" y="384.399596"/>
    </g>
   </g>
   <g id="line2d_167">
    <defs>
     <path d="M 0 4 
C 1.060812 4 2.078319 3.578535 2.828427 2.828427 
C 3.578535 2.078319 4 1.060812 4 0 
C 4 -1.060812 3.578535 -2.078319 2.828427 -2.828427 
C 2.078319 -3.578535 1.060812 -4 0 -4 
C -1.060812 -4 -2.078319 -3.578535 -2.828427 -2.828427 
C -3.578535 -2.078319 -4 -1.060812 -4 0 
C -4 1.060812 -3.578535 2.078319 -2.828427 2.828427 
C -2.078319 3.578535 -1.060812 4 0 4 
z
" id="ma753187195" style="stroke:#f99379;"/>
    </defs>
    <g clip-path="url(#p02fbf48837)">
     <use style="fill-opacity:0;stroke:#f99379;" x="470.7667" xlink:href="#ma753187195" y="432.931396"/>
    </g>
   </g>
   <g id="line2d_168">
    <defs>
     <path d="M 0 4 
C 1.060812 4 2.078319 3.578535 2.828427 2.828427 
C 3.578535 2.078319 4 1.060812 4 0 
C 4 -1.060812 3.578535 -2.078319 2.828427 -2.828427 
C 2.078319 -3.578535 1.060812 -4 0 -4 
C -1.060812 -4 -2.078319 -3.578535 -2.828427 -2.828427 
C -3.578535 -2.078319 -4 -1.060812 -4 0 
C -4 1.060812 -3.578535 2.078319 -2.828427 2.828427 
C -2.078319 3.578535 -1.060812 4 0 4 
z
" id="mcd30fe18b4" style="stroke:#604e97;"/>
    </defs>
    <g clip-path="url(#p02fbf48837)">
     <use style="fill-opacity:0;stroke:#604e97;" x="454.273045" xlink:href="#mcd30fe18b4" y="422.29624"/>
    </g>
   </g>
   <g id="line2d_169">
    <defs>
     <path d="M 0 4 
C 1.060812 4 2.078319 3.578535 2.828427 2.828427 
C 3.578535 2.078319 4 1.060812 4 0 
C 4 -1.060812 3.578535 -2.078319 2.828427 -2.828427 
C 2.078319 -3.578535 1.060812 -4 0 -4 
C -1.060812 -4 -2.078319 -3.578535 -2.828427 -2.828427 
C -3.578535 -2.078319 -4 -1.060812 -4 0 
C -4 1.060812 -3.578535 2.078319 -2.828427 2.828427 
C -2.078319 3.578535 -1.060812 4 0 4 
z
" id="m3c9d0d48df" style="stroke:#f6a600;"/>
    </defs>
    <g clip-path="url(#p02fbf48837)">
     <use style="fill-opacity:0;stroke:#f6a600;" x="637.815789" xlink:href="#m3c9d0d48df" y="371.282854"/>
    </g>
   </g>
   <g id="patch_3">
    <path d="M 82.01 511 
L 82.01 26.28 
" style="fill:none;stroke:#000000;stroke-linecap:square;stroke-linejoin:miter;stroke-width:0.8;"/>
   </g>
   <g id="patch_4">
    <path d="M 844.56 511 
L 844.56 26.28 
" style="fill:none;stroke:#000000;stroke-linecap:square;stroke-linejoin:miter;stroke-width:0.8;"/>
   </g>
   <g id="patch_5">
    <path d="M 82.01 511 
L 844.56 511 
" style="fill:none;stroke:#000000;stroke-linecap:square;stroke-linejoin:miter;stroke-width:0.8;"/>
   </g>
   <g id="patch_6">
    <path d="M 82.01 26.28 
L 844.56 26.28 
" style="fill:none;stroke:#000000;stroke-linecap:square;stroke-linejoin:miter;stroke-width:0.8;"/>
   </g>
   <g id="legend_1">
    <g id="patch_7">
     <path d="M 425.12 153.96 
L 834.76 153.96 
Q 837.56 153.96 837.56 151.16 
L 837.56 36.08 
Q 837.56 33.28 834.76 33.28 
L 425.12 33.28 
Q 422.32 33.28 422.32 36.08 
L 422.32 151.16 
Q 422.32 153.96 425.12 153.96 
z
" style="fill:#ffffff;opacity:0.8;stroke:#cccccc;stroke-linejoin:miter;"/>
    </g>
    <g id="line2d_170"/>
    <g id="line2d_171">
     <g>
      <use style="fill:#222222;stroke:#222222;" x="441.92" xlink:href="#ma937a3e275" y="46.72"/>
     </g>
    </g>
    <g id="text_18">
     <!-- $D^*(2007)^0$ -->
     <g transform="translate(467.12 51.62)scale(0.14 -0.14)">
      <defs>
       <path d="M 16.890625 72.90625 
L 38.09375 72.90625 
Q 54.984375 72.90625 63.59375 65.75 
Q 72.21875 58.59375 72.21875 44.484375 
Q 72.21875 35.15625 68.9375 26.53125 
Q 65.671875 17.921875 59.90625 12.015625 
Q 54.109375 5.953125 45.171875 2.96875 
Q 36.234375 0 24.03125 0 
L 2.6875 0 
z
M 25.203125 64.796875 
L 14.203125 8.109375 
L 27.09375 8.109375 
Q 43.65625 8.109375 52.734375 17.625 
Q 61.8125 27.15625 61.8125 44.484375 
Q 61.8125 54.984375 55.953125 59.890625 
Q 50.09375 64.796875 37.59375 64.796875 
z
" id="DejaVuSans-Oblique-68"/>
       <path d="M 47.015625 60.890625 
L 29.5 51.421875 
L 47.015625 41.890625 
L 44.1875 37.109375 
L 27.78125 47.015625 
L 27.78125 28.609375 
L 22.21875 28.609375 
L 22.21875 47.015625 
L 5.8125 37.109375 
L 2.984375 41.890625 
L 20.515625 51.421875 
L 2.984375 60.890625 
L 5.8125 65.71875 
L 22.21875 55.8125 
L 22.21875 74.21875 
L 27.78125 74.21875 
L 27.78125 55.8125 
L 44.1875 65.71875 
z
" id="DejaVuSans-42"/>
       <path d="M 31 75.875 
Q 24.46875 64.65625 21.28125 53.65625 
Q 18.109375 42.671875 18.109375 31.390625 
Q 18.109375 20.125 21.3125 9.0625 
Q 24.515625 -2 31 -13.1875 
L 23.1875 -13.1875 
Q 15.875 -1.703125 12.234375 9.375 
Q 8.59375 20.453125 8.59375 31.390625 
Q 8.59375 42.28125 12.203125 53.3125 
Q 15.828125 64.359375 23.1875 75.875 
z
" id="DejaVuSans-40"/>
       <path d="M 8.203125 72.90625 
L 55.078125 72.90625 
L 55.078125 68.703125 
L 28.609375 0 
L 18.3125 0 
L 43.21875 64.59375 
L 8.203125 64.59375 
z
" id="DejaVuSans-55"/>
       <path d="M 8.015625 75.875 
L 15.828125 75.875 
Q 23.140625 64.359375 26.78125 53.3125 
Q 30.421875 42.28125 30.421875 31.390625 
Q 30.421875 20.453125 26.78125 9.375 
Q 23.140625 -1.703125 15.828125 -13.1875 
L 8.015625 -13.1875 
Q 14.5 -2 17.703125 9.0625 
Q 20.90625 20.125 20.90625 31.390625 
Q 20.90625 42.671875 17.703125 53.65625 
Q 14.5 64.65625 8.015625 75.875 
z
" id="DejaVuSans-41"/>
      </defs>
      <use transform="translate(0 0.765625)" xlink:href="#DejaVuSans-Oblique-68"/>
      <use transform="translate(97.656419 39.046875)scale(0.7)" xlink:href="#DejaVuSans-42"/>
      <use transform="translate(149.02849 0.765625)" xlink:href="#DejaVuSans-40"/>
      <use transform="translate(188.042161 0.765625)" xlink:href="#DejaVuSans-50"/>
      <use transform="translate(251.665208 0.765625)" xlink:href="#DejaVuSans-48"/>
      <use transform="translate(315.288255 0.765625)" xlink:href="#DejaVuSans-48"/>
      <use transform="translate(378.911302 0.765625)" xlink:href="#DejaVuSans-55"/>
      <use transform="translate(442.534349 0.765625)" xlink:href="#DejaVuSans-41"/>
      <use transform="translate(482.505052 39.046875)scale(0.7)" xlink:href="#DejaVuSans-48"/>
     </g>
    </g>
    <g id="line2d_172"/>
    <g id="line2d_173">
     <g>
      <use style="fill:#f3c300;stroke:#f3c300;" x="441.92" xlink:href="#m567c01243a" y="68.42"/>
     </g>
    </g>
    <g id="text_19">
     <!-- $D^*(2010)^+$ -->
     <g transform="translate(467.12 73.32)scale(0.14 -0.14)">
      <defs>
       <path d="M 46 62.703125 
L 46 35.5 
L 73.1875 35.5 
L 73.1875 27.203125 
L 46 27.203125 
L 46 0 
L 37.796875 0 
L 37.796875 27.203125 
L 10.59375 27.203125 
L 10.59375 35.5 
L 37.796875 35.5 
L 37.796875 62.703125 
z
" id="DejaVuSans-43"/>
      </defs>
      <use transform="translate(0 0.765625)" xlink:href="#DejaVuSans-Oblique-68"/>
      <use transform="translate(97.656419 39.046875)scale(0.7)" xlink:href="#DejaVuSans-42"/>
      <use transform="translate(149.02849 0.765625)" xlink:href="#DejaVuSans-40"/>
      <use transform="translate(188.042161 0.765625)" xlink:href="#DejaVuSans-50"/>
      <use transform="translate(251.665208 0.765625)" xlink:href="#DejaVuSans-48"/>
      <use transform="translate(315.288255 0.765625)" xlink:href="#DejaVuSans-49"/>
      <use transform="translate(378.911302 0.765625)" xlink:href="#DejaVuSans-48"/>
      <use transform="translate(442.534349 0.765625)" xlink:href="#DejaVuSans-41"/>
      <use transform="translate(496.142747 39.046875)scale(0.7)" xlink:href="#DejaVuSans-43"/>
     </g>
    </g>
    <g id="line2d_174"/>
    <g id="line2d_175">
     <g>
      <use style="fill:#875692;stroke:#875692;" x="441.92" xlink:href="#m2c26da1fbc" y="90.54"/>
     </g>
    </g>
    <g id="text_20">
     <!-- $D_1(2420)^0$ -->
     <g transform="translate(467.12 95.44)scale(0.14 -0.14)">
      <use transform="translate(0 0.765625)" xlink:href="#DejaVuSans-Oblique-68"/>
      <use transform="translate(77.001953 -15.640625)scale(0.7)" xlink:href="#DejaVuSans-49"/>
      <use transform="translate(124.272461 0.765625)" xlink:href="#DejaVuSans-40"/>
      <use transform="translate(163.286133 0.765625)" xlink:href="#DejaVuSans-50"/>
      <use transform="translate(226.90918 0.765625)" xlink:href="#DejaVuSans-52"/>
      <use transform="translate(290.532227 0.765625)" xlink:href="#DejaVuSans-50"/>
      <use transform="translate(354.155273 0.765625)" xlink:href="#DejaVuSans-48"/>
      <use transform="translate(417.77832 0.765625)" xlink:href="#DejaVuSans-41"/>
      <use transform="translate(457.749023 39.046875)scale(0.7)" xlink:href="#DejaVuSans-48"/>
     </g>
    </g>
    <g id="line2d_176"/>
    <g id="line2d_177">
     <g>
      <use style="fill:#f38400;stroke:#f38400;" x="441.92" xlink:href="#m320aeae986" y="113.191563"/>
     </g>
    </g>
    <g id="text_21">
     <!-- $D_2^*(2460)^0$ -->
     <g transform="translate(467.12 118.091563)scale(0.14 -0.14)">
      <use transform="translate(0 0.765625)" xlink:href="#DejaVuSans-Oblique-68"/>
      <use transform="translate(97.656419 39.046875)scale(0.7)" xlink:href="#DejaVuSans-42"/>
      <use transform="translate(77.001953 -26.578125)scale(0.7)" xlink:href="#DejaVuSans-50"/>
      <use transform="translate(149.02849 0.765625)" xlink:href="#DejaVuSans-40"/>
      <use transform="translate(188.042161 0.765625)" xlink:href="#DejaVuSans-50"/>
      <use transform="translate(251.665208 0.765625)" xlink:href="#DejaVuSans-52"/>
      <use transform="translate(315.288255 0.765625)" xlink:href="#DejaVuSans-54"/>
      <use transform="translate(378.911302 0.765625)" xlink:href="#DejaVuSans-48"/>
      <use transform="translate(442.534349 0.765625)" xlink:href="#DejaVuSans-41"/>
      <use transform="translate(482.505052 39.046875)scale(0.7)" xlink:href="#DejaVuSans-48"/>
     </g>
    </g>
    <g id="line2d_178"/>
    <g id="line2d_179">
     <g>
      <use style="fill:#a1caf1;stroke:#a1caf1;" x="441.92" xlink:href="#mc42f2517e6" y="135.2"/>
     </g>
    </g>
    <g id="text_22">
     <!-- $D_1(2420)^{\pm}$ -->
     <g transform="translate(467.12 140.1)scale(0.14 -0.14)">
      <defs>
       <path d="M 46 62.703125 
L 46 43.796875 
L 73.1875 43.796875 
L 73.1875 35.5 
L 46 35.5 
L 46 16.609375 
L 37.796875 16.609375 
L 37.796875 35.5 
L 10.59375 35.5 
L 10.59375 43.796875 
L 37.796875 43.796875 
L 37.796875 62.703125 
z
M 10.59375 8.296875 
L 73.1875 8.296875 
L 73.1875 0 
L 10.59375 0 
z
" id="DejaVuSans-177"/>
      </defs>
      <use transform="translate(0 0.826562)" xlink:href="#DejaVuSans-Oblique-68"/>
      <use transform="translate(77.001953 -15.579688)scale(0.7)" xlink:href="#DejaVuSans-49"/>
      <use transform="translate(124.272461 0.826562)" xlink:href="#DejaVuSans-40"/>
      <use transform="translate(163.286133 0.826562)" xlink:href="#DejaVuSans-50"/>
      <use transform="translate(226.90918 0.826562)" xlink:href="#DejaVuSans-52"/>
      <use transform="translate(290.532227 0.826562)" xlink:href="#DejaVuSans-50"/>
      <use transform="translate(354.155273 0.826562)" xlink:href="#DejaVuSans-48"/>
      <use transform="translate(417.77832 0.826562)" xlink:href="#DejaVuSans-41"/>
      <use transform="translate(457.749023 39.107812)scale(0.7)" xlink:href="#DejaVuSans-177"/>
     </g>
    </g>
    <g id="line2d_180"/>
    <g id="line2d_181">
     <g>
      <use style="fill:#be0032;stroke:#be0032;" x="589.2" xlink:href="#m36db941445" y="46.72"/>
     </g>
    </g>
    <g id="text_23">
     <!-- $D_2^*(2460)^{\pm}$ -->
     <g transform="translate(614.4 51.62)scale(0.14 -0.14)">
      <use transform="translate(0 0.765625)" xlink:href="#DejaVuSans-Oblique-68"/>
      <use transform="translate(97.656419 39.046875)scale(0.7)" xlink:href="#DejaVuSans-42"/>
      <use transform="translate(77.001953 -26.578125)scale(0.7)" xlink:href="#DejaVuSans-50"/>
      <use transform="translate(149.02849 0.765625)" xlink:href="#DejaVuSans-40"/>
      <use transform="translate(188.042161 0.765625)" xlink:href="#DejaVuSans-50"/>
      <use transform="translate(251.665208 0.765625)" xlink:href="#DejaVuSans-52"/>
      <use transform="translate(315.288255 0.765625)" xlink:href="#DejaVuSans-54"/>
      <use transform="translate(378.911302 0.765625)" xlink:href="#DejaVuSans-48"/>
      <use transform="translate(442.534349 0.765625)" xlink:href="#DejaVuSans-41"/>
      <use transform="translate(482.505052 39.046875)scale(0.7)" xlink:href="#DejaVuSans-177"/>
     </g>
    </g>
    <g id="line2d_182"/>
    <g id="line2d_183">
     <g>
      <use style="fill:#c2b280;stroke:#c2b280;" x="589.2" xlink:href="#m0c7b3860f5" y="70.38"/>
     </g>
    </g>
    <g id="text_24">
     <!-- $D_0^*(2300)^0$ -->
     <g transform="translate(614.4 75.28)scale(0.14 -0.14)">
      <use transform="translate(0 0.765625)" xlink:href="#DejaVuSans-Oblique-68"/>
      <use transform="translate(97.656419 39.046875)scale(0.7)" xlink:href="#DejaVuSans-42"/>
      <use transform="translate(77.001953 -26.578125)scale(0.7)" xlink:href="#DejaVuSans-48"/>
      <use transform="translate(149.02849 0.765625)" xlink:href="#DejaVuSans-40"/>
      <use transform="translate(188.042161 0.765625)" xlink:href="#DejaVuSans-50"/>
      <use transform="translate(251.665208 0.765625)" xlink:href="#DejaVuSans-51"/>
      <use transform="translate(315.288255 0.765625)" xlink:href="#DejaVuSans-48"/>
      <use transform="translate(378.911302 0.765625)" xlink:href="#DejaVuSans-48"/>
      <use transform="translate(442.534349 0.765625)" xlink:href="#DejaVuSans-41"/>
      <use transform="translate(482.505052 39.046875)scale(0.7)" xlink:href="#DejaVuSans-48"/>
     </g>
    </g>
    <g id="line2d_184"/>
    <g id="line2d_185">
     <g>
      <use style="fill:#848482;stroke:#848482;" x="589.2" xlink:href="#m3b019da1bf" y="94.18"/>
     </g>
    </g>
    <g id="text_25">
     <!-- $D_0^*(2300)^{\pm}$ -->
     <g transform="translate(614.4 99.08)scale(0.14 -0.14)">
      <use transform="translate(0 0.765625)" xlink:href="#DejaVuSans-Oblique-68"/>
      <use transform="translate(97.656419 39.046875)scale(0.7)" xlink:href="#DejaVuSans-42"/>
      <use transform="translate(77.001953 -26.578125)scale(0.7)" xlink:href="#DejaVuSans-48"/>
      <use transform="translate(149.02849 0.765625)" xlink:href="#DejaVuSans-40"/>
      <use transform="translate(188.042161 0.765625)" xlink:href="#DejaVuSans-50"/>
      <use transform="translate(251.665208 0.765625)" xlink:href="#DejaVuSans-51"/>
      <use transform="translate(315.288255 0.765625)" xlink:href="#DejaVuSans-48"/>
      <use transform="translate(378.911302 0.765625)" xlink:href="#DejaVuSans-48"/>
      <use transform="translate(442.534349 0.765625)" xlink:href="#DejaVuSans-41"/>
      <use transform="translate(482.505052 39.046875)scale(0.7)" xlink:href="#DejaVuSans-177"/>
     </g>
    </g>
    <g id="line2d_186"/>
    <g id="line2d_187">
     <g>
      <use style="fill:#008856;stroke:#008856;" x="589.2" xlink:href="#ma41662ec81" y="117.448438"/>
     </g>
    </g>
    <g id="text_26">
     <!-- $D_1(2430)^0$ -->
     <g transform="translate(614.4 122.348438)scale(0.14 -0.14)">
      <use transform="translate(0 0.765625)" xlink:href="#DejaVuSans-Oblique-68"/>
      <use transform="translate(77.001953 -15.640625)scale(0.7)" xlink:href="#DejaVuSans-49"/>
      <use transform="translate(124.272461 0.765625)" xlink:href="#DejaVuSans-40"/>
      <use transform="translate(163.286133 0.765625)" xlink:href="#DejaVuSans-50"/>
      <use transform="translate(226.90918 0.765625)" xlink:href="#DejaVuSans-52"/>
      <use transform="translate(290.532227 0.765625)" xlink:href="#DejaVuSans-51"/>
      <use transform="translate(354.155273 0.765625)" xlink:href="#DejaVuSans-48"/>
      <use transform="translate(417.77832 0.765625)" xlink:href="#DejaVuSans-41"/>
      <use transform="translate(457.749023 39.046875)scale(0.7)" xlink:href="#DejaVuSans-48"/>
     </g>
    </g>
    <g id="line2d_188"/>
    <g id="line2d_189">
     <g>
      <use style="fill:#e68fac;stroke:#e68fac;" x="589.2" xlink:href="#m671d1422b7" y="139.148438"/>
     </g>
    </g>
    <g id="text_27">
     <!-- $D(2550)^0$ -->
     <g transform="translate(614.4 144.048438)scale(0.14 -0.14)">
      <use transform="translate(0 0.765625)" xlink:href="#DejaVuSans-Oblique-68"/>
      <use transform="translate(77.001953 0.765625)" xlink:href="#DejaVuSans-40"/>
      <use transform="translate(116.015625 0.765625)" xlink:href="#DejaVuSans-50"/>
      <use transform="translate(179.638672 0.765625)" xlink:href="#DejaVuSans-53"/>
      <use transform="translate(243.261719 0.765625)" xlink:href="#DejaVuSans-53"/>
      <use transform="translate(306.884766 0.765625)" xlink:href="#DejaVuSans-48"/>
      <use transform="translate(370.507812 0.765625)" xlink:href="#DejaVuSans-41"/>
      <use transform="translate(410.478516 39.046875)scale(0.7)" xlink:href="#DejaVuSans-48"/>
     </g>
    </g>
    <g id="line2d_190"/>
    <g id="line2d_191">
     <g>
      <use style="fill:#0067a5;stroke:#0067a5;" x="732.56" xlink:href="#m7ce2de2a1c" y="46.72"/>
     </g>
    </g>
    <g id="text_28">
     <!-- $D_J^*(2600)$ -->
     <g transform="translate(757.76 51.62)scale(0.14 -0.14)">
      <defs>
       <path d="M 16.703125 72.90625 
L 26.609375 72.90625 
L 13.375 5.078125 
Q 10.796875 -8.15625 4.65625 -14.078125 
Q -1.46875 -20.015625 -12.5 -20.015625 
L -16.40625 -20.015625 
L -14.796875 -11.71875 
L -11.71875 -11.71875 
Q -5.125 -11.71875 -1.703125 -7.953125 
Q 1.703125 -4.203125 3.515625 5.078125 
z
" id="DejaVuSans-Oblique-74"/>
      </defs>
      <use transform="translate(0 0.765625)" xlink:href="#DejaVuSans-Oblique-68"/>
      <use transform="translate(97.656419 39.046875)scale(0.7)" xlink:href="#DejaVuSans-42"/>
      <use transform="translate(77.001953 -26.578125)scale(0.7)" xlink:href="#DejaVuSans-Oblique-74"/>
      <use transform="translate(149.02849 0.765625)" xlink:href="#DejaVuSans-40"/>
      <use transform="translate(188.042161 0.765625)" xlink:href="#DejaVuSans-50"/>
      <use transform="translate(251.665208 0.765625)" xlink:href="#DejaVuSans-54"/>
      <use transform="translate(315.288255 0.765625)" xlink:href="#DejaVuSans-48"/>
      <use transform="translate(378.911302 0.765625)" xlink:href="#DejaVuSans-48"/>
      <use transform="translate(442.534349 0.765625)" xlink:href="#DejaVuSans-41"/>
     </g>
    </g>
    <g id="line2d_192"/>
    <g id="line2d_193">
     <g>
      <use style="fill:#f99379;stroke:#f99379;" x="732.56" xlink:href="#m1dd327defd" y="72.34"/>
     </g>
    </g>
    <g id="text_29">
     <!-- $D_3^*(2750)$ -->
     <g transform="translate(757.76 77.24)scale(0.14 -0.14)">
      <use transform="translate(0 0.765625)" xlink:href="#DejaVuSans-Oblique-68"/>
      <use transform="translate(97.656419 39.046875)scale(0.7)" xlink:href="#DejaVuSans-42"/>
      <use transform="translate(77.001953 -26.578125)scale(0.7)" xlink:href="#DejaVuSans-51"/>
      <use transform="translate(149.02849 0.765625)" xlink:href="#DejaVuSans-40"/>
      <use transform="translate(188.042161 0.765625)" xlink:href="#DejaVuSans-50"/>
      <use transform="translate(251.665208 0.765625)" xlink:href="#DejaVuSans-55"/>
      <use transform="translate(315.288255 0.765625)" xlink:href="#DejaVuSans-53"/>
      <use transform="translate(378.911302 0.765625)" xlink:href="#DejaVuSans-48"/>
      <use transform="translate(442.534349 0.765625)" xlink:href="#DejaVuSans-41"/>
     </g>
    </g>
    <g id="line2d_194"/>
    <g id="line2d_195">
     <g>
      <use style="fill:#604e97;stroke:#604e97;" x="732.56" xlink:href="#ma1700699fa" y="95.188437"/>
     </g>
    </g>
    <g id="text_30">
     <!-- $D(2740)^0$ -->
     <g transform="translate(757.76 100.088437)scale(0.14 -0.14)">
      <use transform="translate(0 0.765625)" xlink:href="#DejaVuSans-Oblique-68"/>
      <use transform="translate(77.001953 0.765625)" xlink:href="#DejaVuSans-40"/>
      <use transform="translate(116.015625 0.765625)" xlink:href="#DejaVuSans-50"/>
      <use transform="translate(179.638672 0.765625)" xlink:href="#DejaVuSans-55"/>
      <use transform="translate(243.261719 0.765625)" xlink:href="#DejaVuSans-52"/>
      <use transform="translate(306.884766 0.765625)" xlink:href="#DejaVuSans-48"/>
      <use transform="translate(370.507812 0.765625)" xlink:href="#DejaVuSans-41"/>
      <use transform="translate(410.478516 39.046875)scale(0.7)" xlink:href="#DejaVuSans-48"/>
     </g>
    </g>
    <g id="line2d_196"/>
    <g id="line2d_197">
     <g>
      <use style="fill:#f6a600;stroke:#f6a600;" x="732.56" xlink:href="#me2ee8ec3c4" y="116.888437"/>
     </g>
    </g>
    <g id="text_31">
     <!-- $D(3000)^0$ -->
     <g transform="translate(757.76 121.788437)scale(0.14 -0.14)">
      <use transform="translate(0 0.765625)" xlink:href="#DejaVuSans-Oblique-68"/>
      <use transform="translate(77.001953 0.765625)" xlink:href="#DejaVuSans-40"/>
      <use transform="translate(116.015625 0.765625)" xlink:href="#DejaVuSans-51"/>
      <use transform="translate(179.638672 0.765625)" xlink:href="#DejaVuSans-48"/>
      <use transform="translate(243.261719 0.765625)" xlink:href="#DejaVuSans-48"/>
      <use transform="translate(306.884766 0.765625)" xlink:href="#DejaVuSans-48"/>
      <use transform="translate(370.507812 0.765625)" xlink:href="#DejaVuSans-41"/>
      <use transform="translate(410.478516 39.046875)scale(0.7)" xlink:href="#DejaVuSans-48"/>
     </g>
    </g>
    <g id="line2d_198"/>
    <g id="line2d_199">
     <g>
      <use style="fill:#b3446c;stroke:#b3446c;" x="732.56" xlink:href="#mbcefe1262c" y="139.54"/>
     </g>
    </g>
    <g id="text_32">
     <!-- $D^*_1(2760)^0$ -->
     <g transform="translate(757.76 144.44)scale(0.14 -0.14)">
      <use transform="translate(0 0.765625)" xlink:href="#DejaVuSans-Oblique-68"/>
      <use transform="translate(97.656419 39.046875)scale(0.7)" xlink:href="#DejaVuSans-42"/>
      <use transform="translate(77.001953 -26.578125)scale(0.7)" xlink:href="#DejaVuSans-49"/>
      <use transform="translate(149.02849 0.765625)" xlink:href="#DejaVuSans-40"/>
      <use transform="translate(188.042161 0.765625)" xlink:href="#DejaVuSans-50"/>
      <use transform="translate(251.665208 0.765625)" xlink:href="#DejaVuSans-55"/>
      <use transform="translate(315.288255 0.765625)" xlink:href="#DejaVuSans-54"/>
      <use transform="translate(378.911302 0.765625)" xlink:href="#DejaVuSans-48"/>
      <use transform="translate(442.534349 0.765625)" xlink:href="#DejaVuSans-41"/>
      <use transform="translate(482.505052 39.046875)scale(0.7)" xlink:href="#DejaVuSans-48"/>
     </g>
    </g>
   </g>
   <g id="legend_2">
    <g id="patch_8">
     <path d="M 759.66675 220.168 
L 832.464563 220.168 
Q 835.264563 220.168 835.264563 217.368 
L 835.264563 177.66925 
Q 835.264563 174.86925 832.464563 174.86925 
L 759.66675 174.86925 
Q 756.86675 174.86925 756.86675 177.66925 
L 756.86675 217.368 
Q 756.86675 220.168 759.66675 220.168 
z
" style="fill:#ffffff;opacity:0.8;stroke:#cccccc;stroke-linejoin:miter;"/>
    </g>
    <g id="line2d_200"/>
    <g id="line2d_201">
     <g>
      <use style="fill-opacity:0;stroke:#000000;" x="776.46675" xlink:href="#m5311a05a0c" y="186.207062"/>
     </g>
    </g>
    <g id="text_33">
     <!-- incl -->
     <g transform="translate(801.66675 191.107062)scale(0.14 -0.14)">
      <defs>
       <path d="M 54.890625 33.015625 
L 54.890625 0 
L 45.90625 0 
L 45.90625 32.71875 
Q 45.90625 40.484375 42.875 44.328125 
Q 39.84375 48.1875 33.796875 48.1875 
Q 26.515625 48.1875 22.3125 43.546875 
Q 18.109375 38.921875 18.109375 30.90625 
L 18.109375 0 
L 9.078125 0 
L 9.078125 54.6875 
L 18.109375 54.6875 
L 18.109375 46.1875 
Q 21.34375 51.125 25.703125 53.5625 
Q 30.078125 56 35.796875 56 
Q 45.21875 56 50.046875 50.171875 
Q 54.890625 44.34375 54.890625 33.015625 
z
" id="DejaVuSans-110"/>
       <path d="M 48.78125 52.59375 
L 48.78125 44.1875 
Q 44.96875 46.296875 41.140625 47.34375 
Q 37.3125 48.390625 33.40625 48.390625 
Q 24.65625 48.390625 19.8125 42.84375 
Q 14.984375 37.3125 14.984375 27.296875 
Q 14.984375 17.28125 19.8125 11.734375 
Q 24.65625 6.203125 33.40625 6.203125 
Q 37.3125 6.203125 41.140625 7.25 
Q 44.96875 8.296875 48.78125 10.40625 
L 48.78125 2.09375 
Q 45.015625 0.34375 40.984375 -0.53125 
Q 36.96875 -1.421875 32.421875 -1.421875 
Q 20.0625 -1.421875 12.78125 6.34375 
Q 5.515625 14.109375 5.515625 27.296875 
Q 5.515625 40.671875 12.859375 48.328125 
Q 20.21875 56 33.015625 56 
Q 37.15625 56 41.109375 55.140625 
Q 45.0625 54.296875 48.78125 52.59375 
z
" id="DejaVuSans-99"/>
       <path d="M 9.421875 75.984375 
L 18.40625 75.984375 
L 18.40625 0 
L 9.421875 0 
z
" id="DejaVuSans-108"/>
      </defs>
      <use xlink:href="#DejaVuSans-105"/>
      <use x="27.783203" xlink:href="#DejaVuSans-110"/>
      <use x="91.162109" xlink:href="#DejaVuSans-99"/>
      <use x="146.142578" xlink:href="#DejaVuSans-108"/>
     </g>
    </g>
    <g id="line2d_202"/>
    <g id="line2d_203">
     <g>
      <use style="fill-opacity:0;stroke:#000000;stroke-linejoin:miter;" x="776.46675" xlink:href="#m2afc656550" y="206.756437"/>
     </g>
    </g>
    <g id="text_34">
     <!-- excl -->
     <g transform="translate(801.66675 211.656437)scale(0.14 -0.14)">
      <defs>
       <path d="M 54.890625 54.6875 
L 35.109375 28.078125 
L 55.90625 0 
L 45.3125 0 
L 29.390625 21.484375 
L 13.484375 0 
L 2.875 0 
L 24.125 28.609375 
L 4.6875 54.6875 
L 15.28125 54.6875 
L 29.78125 35.203125 
L 44.28125 54.6875 
z
" id="DejaVuSans-120"/>
      </defs>
      <use xlink:href="#DejaVuSans-101"/>
      <use x="59.773438" xlink:href="#DejaVuSans-120"/>
      <use x="117.203125" xlink:href="#DejaVuSans-99"/>
      <use x="172.183594" xlink:href="#DejaVuSans-108"/>
     </g>
    </g>
   </g>
   <g id="legend_3">
    <g id="patch_9">
     <path d="M 759.66675 220.168 
L 832.464563 220.168 
Q 835.264563 220.168 835.264563 217.368 
L 835.264563 177.66925 
Q 835.264563 174.86925 832.464563 174.86925 
L 759.66675 174.86925 
Q 756.86675 174.86925 756.86675 177.66925 
L 756.86675 217.368 
Q 756.86675 220.168 759.66675 220.168 
z
" style="fill:#ffffff;opacity:0.8;stroke:#cccccc;stroke-linejoin:miter;"/>
    </g>
    <g id="line2d_204"/>
    <g id="line2d_205">
     <g>
      <use style="fill-opacity:0;stroke:#000000;" x="776.46675" xlink:href="#m5311a05a0c" y="186.207062"/>
     </g>
    </g>
    <g id="text_35">
     <!-- incl -->
     <g transform="translate(801.66675 191.107062)scale(0.14 -0.14)">
      <use xlink:href="#DejaVuSans-105"/>
      <use x="27.783203" xlink:href="#DejaVuSans-110"/>
      <use x="91.162109" xlink:href="#DejaVuSans-99"/>
      <use x="146.142578" xlink:href="#DejaVuSans-108"/>
     </g>
    </g>
    <g id="line2d_206"/>
    <g id="line2d_207">
     <g>
      <use style="fill-opacity:0;stroke:#000000;stroke-linejoin:miter;" x="776.46675" xlink:href="#m2afc656550" y="206.756437"/>
     </g>
    </g>
    <g id="text_36">
     <!-- excl -->
     <g transform="translate(801.66675 211.656437)scale(0.14 -0.14)">
      <use xlink:href="#DejaVuSans-101"/>
      <use x="59.773438" xlink:href="#DejaVuSans-120"/>
      <use x="117.203125" xlink:href="#DejaVuSans-99"/>
      <use x="172.183594" xlink:href="#DejaVuSans-108"/>
     </g>
    </g>
   </g>
  </g>
 </g>
 <defs>
  <clipPath id="p02fbf48837">
   <rect height="484.72" width="762.55" x="82.01" y="26.28"/>
  </clipPath>
 </defs>
</svg>
